<?xml version="1.0" standalone="no"?>
<!DOCTYPE svg PUBLIC "-//W3C//DTD SVG 1.1//EN" "http://www.w3.org/Graphics/SVG/1.1/DTD/svg11.dtd" >
<svg>
<metadata>
Created by FontForge 20090914 at Thu Feb 23 18:29:17 2012
 By ffonts
Copyright (c) 2008 by Jess Latham. All rights reserved.
</metadata>
<defs>
<font id="PocketCalculator" horiz-adv-x="473" >
  <font-face 
    font-family="Pocket Calculator"
    font-weight="400"
    font-stretch="normal"
    units-per-em="1000"
    panose-1="2 0 0 0 0 0 0 0 0 0"
    ascent="795"
    descent="-205"
    x-height="439"
    cap-height="632"
    bbox="-41 -185 841 794"
    underline-thickness="20"
    underline-position="-123"
    unicode-range="U+0020-U+FB02"
  />
<missing-glyph horiz-adv-x="493" 
d="M53 637h387v-637h-387v637zM91 38h311v553h-311v-553z" />
    <glyph glyph-name=".notdef" horiz-adv-x="493" 
d="M53 637h387v-637h-387v637zM91 38h311v553h-311v-553z" />
    <glyph glyph-name=".null" horiz-adv-x="0" 
 />
    <glyph glyph-name="nonmarkingreturn" horiz-adv-x="218" 
 />
    <glyph glyph-name="space" unicode=" " horiz-adv-x="218" 
 />
    <glyph glyph-name="exclam" unicode="!" horiz-adv-x="213" 
d="M62 450v130l48 48l48 -48v-130l-48 -48zM158 345v-112l-48 -48l-48 48v113l48 48zM189 49l-47 -47h-64l-47 47l46 46h67z" />
    <glyph glyph-name="quotedbl" unicode="&#x22;" horiz-adv-x="414" 
d="M66 470v130l48 49l49 -49v-130l-49 -48zM271 470v130l49 49l48 -49v-130l-48 -48z" />
    <glyph glyph-name="numbersign" unicode="#" horiz-adv-x="648" 
d="M431 632l48 -48v-100l-48 -48l-49 48v100zM431 418l48 -48v-91l-48 -48l-49 49v89zM203 436l-48 48v99l48 49l48 -48v-100zM203 232l-48 48v89l48 48l48 -48v-89zM421 222l-48 -48h-112l-49 49l48 47h113zM212 427l48 48h113l48 -48l-49 -49h-112zM430 213l48 -48v-113
l-48 -48l-48 48v113zM203 3l-49 49v112l49 49l48 -48v-113zM25 425l48 49h75l48 -49l-48 -48h-74zM442 425l48 49h74l48 -49l-48 -48h-74zM23 221l48 48h74l48 -48l-48 -48h-74zM439 221l49 48h74l48 -48l-48 -48h-74z" />
    <glyph glyph-name="dollar" unicode="$" horiz-adv-x="434" 
d="M74 485l47 46h102l46 -46l-47 -47h-101zM388 212v-106l-46 -46q-13 12 -24.5 24l-22.5 23v103l47 47v-1zM63 279l-47 47v100l47 47l2 -2l44 -43v-102zM330 48l-47 -47h-106l-47 48l46 46h108zM74 266l47 47h163l46 -46l-47 -47h-162zM279 492l-49 49v59l48 48l49 -49v-58
zM120 -116l-48 49v59l48 47l48 -48v-59z" />
    <glyph glyph-name="percent" unicode="%" horiz-adv-x="682" 
d="M324 445v142l44 44l2 2l47 -47v-141q-5 -6 -47 -47zM274 235v147l47 45l47 -48v-144l-47 -47zM219 31v142l47 46l47 -47v-141q-5 -4 -16.5 -15.5l-30.5 -30.5zM44 604l23 23h82l23 -23l-24 -24h-81zM201 575v-74l-23 -24l-24 24v74l23 23zM177 466l20.5 -20.5t3.5 -2.5
v-76l-24 -23l-23 23v75zM38 477l-24 24v73l24 24l23 -22v-75zM38 344q-23 23 -24 23v75q19 21 24 24l23 -24v-74zM148 361l15 -15t9 -8q-2 -1 -24 -23h-81l-24 23l23 23h82zM477 291l24 23h81l23 -23q-2 -3 -23 -24h-81zM634 262v-74l-23 -23l-23 23v74l23 23zM611 153
q12 -11 23 -23v-76l-23 -23l-23 24v75zM472 164l-24 24v74l24 23l23 -22v-75zM454 49l-6 6v75q22 22 24 23l23 -23v-75l-24 -24zM582 49q21 -21 23 -24l-23 -23h-81l-24 24l23 23h82z" />
    <glyph glyph-name="ampersand" unicode="&#x26;" horiz-adv-x="502" 
d="M241 281l-49 48v115l49 49l48 -48v-116zM238 48l-49 49v115l49 48l48 -48v-115zM467 270l-48 -49h-115l-49 49l48 48h116zM224 272l-48 -49h-115l-49 49l48 48h116z" />
    <glyph glyph-name="quotesingle" unicode="'" horiz-adv-x="208" 
d="M66 470v130l48 49l49 -49v-130l-49 -48z" />
    <glyph glyph-name="parenleft" unicode="(" horiz-adv-x="220" 
d="M84 439l2 143q1 0 43 42l2 3l47 -47v-141l-47 -47zM35 72l-1 302l32 31.5t16 14.5l47 -47v-301l-47 -47zM88 -131v142l44 44l2 2l47 -47v-141q0 -1 -46 -47z" />
    <glyph glyph-name="parenright" unicode=")" horiz-adv-x="232" 
d="M84 392l-47 47v141l47 47l47 -45v-143zM133 25l-46 47v301l47 47l46 -46v-302zM81 -178l-47 47v141l47 47l2 -2l44 -44v-142z" />
    <glyph glyph-name="asterisk" unicode="*" horiz-adv-x="300" 
d="M218 614v-37l-23 -23l-23 24v36l23 23zM218 465v-32l-23 -23l-23 23v32l23 23zM102 554l-23 23v36q23 23 23 24l2 -1q19 -21 21 -21l1 -37zM79 433v32l23 23l24 -23v-32l-24 -23zM108 548l23 23h35l23 -23l-23 -23h-35zM108 493l23 24h35l23 -24l-23 -23h-35zM196 544h46
l23 -23l-24 -23l-45 -5l-24 28zM56 544h46l23 -23l-23 -23h-46l-23 23z" />
    <glyph glyph-name="plus" unicode="+" horiz-adv-x="502" 
d="M241 281l-49 48v115l49 49l48 -48v-116zM238 48l-49 49v115l49 48l48 -48v-115zM467 270l-48 -49h-115l-49 49l48 48h116zM224 272l-48 -49h-115l-49 49l48 48h116z" />
    <glyph glyph-name="comma" unicode="," horiz-adv-x="224" 
d="M186 50l-47 -47h-64l-47 47l46 46l67 -1zM240 -6v-77l-46 -46l-47 48v75l47 46z" />
    <glyph glyph-name="hyphen" unicode="-" horiz-adv-x="399" 
d="M371 308l-48 -48h-239l-49 49l48 48h240z" />
    <glyph glyph-name="period" unicode="." horiz-adv-x="211" 
d="M193 50l-47 -47h-64l-47 47l46 46h67z" />
    <glyph glyph-name="slash" unicode="/" horiz-adv-x="260" 
d="M131 445v142l44 44l2 2l47 -47v-141q-2 -3 -14 -15l-32 -32zM81 235v147l47 45l47 -48v-144l-47 -47zM26 31v142l47 46l47 -47v-141q-5 -4 -16.5 -15.5l-30.5 -30.5z" />
    <glyph glyph-name="zero" unicode="0" horiz-adv-x="458" 
d="M102 575l47 47h163l46 -47l-47 -47h-162zM416 518v-149l-46 -46l-47 47v147l47 47zM416 255v-153l-46 -46l-47 47v150l2 2q42 43 45 45zM90 322l-26 26t-20 21v148l47 47l2 -3l44 -43v-149zM90 56q-12 11 -20.5 20l-14.5 15l-11 12v150l46 47l47 -47v-150zM358 44
l-47 -47h-162l-48 48l47 46h163z" />
    <glyph glyph-name="one" unicode="1" horiz-adv-x="290" 
d="M188 306l-49 48v166l49 49l48 -48v-167zM184 -1l-45 48v192l49 48l48 -48q0 -12 -0.5 -43l-1 -63.5t-1 -58t-0.5 -27.5zM27 577l48 48h59l48 -48l-49 -49h-58z" />
    <glyph glyph-name="two" unicode="2" horiz-adv-x="442" 
d="M295 532h-201l-47 47l46 47h202l47 -47zM74 304l47 -47v-150q-14 -15 -47 -47l-46 46v153zM307 373v149l44 43l2 3l47 -48v-147l-46 -47zM132 95h205l46 -46l-47 -48h-203l-47 47zM295 267h-162l-47 47l46 46h163l47 -46z" />
    <glyph glyph-name="three" unicode="3" horiz-adv-x="434" 
d="M284 532h-207l-22.5 21.5l-25.5 25.5l47 47h208l47 -47zM296 373v149l44 43l2 3l47 -48v-147l-47 -47zM343 60l-47 47v150l46 47l47 -47v-150l-11 -12zM76 95h209l46 -46l-47 -48h-208l-46 47zM284 267h-130l-47 47l46 46h131l47 -46z" />
    <glyph glyph-name="four" unicode="4" horiz-adv-x="451" 
d="M397 582v-211l-46 -47l-47 47v211l47 47zM397 256v-212l-46 -47l-47 47v210l47 47zM72 324q-17 17 -29 28t-18 19v210l47 47l2 -2l44 -43v-212zM83 311q12 13 24 24.5l23 22.5h163l46 -46l-47 -47h-162z" />
    <glyph glyph-name="five" unicode="5" horiz-adv-x="445" 
d="M87 575l47 47h202l46 -47l-47 -47h-201zM355 300q45 -44 45 -46l1 -152l-46 -46l-47 46v151zM76 322l-47 47v147l47 47l2 -2l44 -43v-149zM343 44l-46 -47h-204l-47 48l46 46h205zM87 309l47 47h163l46 -46l-47 -47h-162zM113 621l-82 -82v82h82z" />
    <glyph glyph-name="six" unicode="6" horiz-adv-x="447" 
d="M88 577l29 28.5t18 18.5h163l46 -47q-13 -12 -24.5 -24l-22.5 -23h-162zM389 267q3 -4 6 -6.5t5 -4.5l2 -152l-47 -46l-47 46v151l47 47zM76 324l-47 47v147l47 47l47 -44v-150zM29 105v150l47 46q46 -46 47 -46v-150l-47 -47zM344 46l-47 -47h-162l-48 48l46 46h164z
M88 311l46 47h163l47 -46l-30 -30t-18 -17h-162z" />
    <glyph glyph-name="seven" unicode="7" horiz-adv-x="409" 
d="M213 278q8 7 19.5 18.5l27.5 27.5l47 -46v-234l-47 -47l-3 2q-42 42 -42 43l-2 1v235zM316 569q46 -46 47 -46v-189l-47 -47l-47 47v188zM16 581l47 47h194l48 -48l-46 -46h-196z" />
    <glyph glyph-name="eight" unicode="8" horiz-adv-x="461" 
d="M93 573l47 47h163l46 -46l-47 -48h-162zM407 516v-149l-46 -46l-47 47v147l47 47zM407 253v-153l-47 -46l-46 47v150l47 47zM81 321l-46 46v148l47 47l2 -3q42 -41 42 -42l2 -1v-149zM81 54q-12 11 -20.5 20l-14.5 15l-11 12v150q7 8 18.5 19.5l27.5 27.5l47 -47v-150z
M349 42l-47 -46h-162l-48 47l47 46h163zM93 308l47 47h163l46 -47l-29 -28.5t-18 -18.5h-163z" />
    <glyph glyph-name="nine" unicode="9" horiz-adv-x="445" 
d="M344 46l-46 -47h-163l-47 47l48 47h162zM32 366l-2 2v151l47 46l47 -46v-151l-47 -47zM356 299l47 -47v-147l-47 -47l-3 2q-41 42 -42 42l-2 150zM403 518v-150l-47 -46l-28.5 28.5t-18.5 17.5v150l47 47zM88 577l47 47h163l47 -48l-46 -46h-164zM345 312l-47 -47h-163
l-46 46q12 13 24 24.5l23 22.5h162z" />
    <glyph glyph-name="colon" unicode=":" horiz-adv-x="234" 
d="M193 50l-47 -47h-64l-47 47l46 46h67zM193 395l-45 -47h-66l-47 46l46 47h66l1 -2z" />
    <glyph glyph-name="semicolon" unicode=";" horiz-adv-x="240" 
d="M186 50l-47 -47h-64l-47 47l46 46l67 -1zM240 -6v-77l-46 -46l-47 48v75l47 46zM186 395l-47 -47h-64l-47 46l46 47h66l1 -2z" />
    <glyph glyph-name="less" unicode="&#x3c;" horiz-adv-x="533" 
d="M489 466l-46 -47h-158l-47 47l46 46h159zM273 410l-47 -47h-103l-11 12l-15 14.5t-20 20.5l46 46h105zM280 207h159l1 -2q1 0 42 -42l3 -2l-47 -47h-158l-46 47l23 22.5t23 23.5zM77 218l47 47h102l47 -47l-46 -46h-103q-1 0 -47 46zM112 352v-76l-46 -46l-47 47v75
l46 47z" />
    <glyph glyph-name="equal" unicode="=" horiz-adv-x="417" 
d="M372 308l-49 -48h-239l-48 49l48 48h239zM371 158l-48 -48h-239l-49 49l48 48h240z" />
    <glyph glyph-name="greater" unicode="&#x3e;" horiz-adv-x="536" 
d="M65 512h159l46 -46l-47 -47h-158l-46 47zM280 456h105l46 -46l-46 -47h-103l-47 47zM274 161l-46 -47h-158l-47 47l3 2l43 44h159zM385 172h-103l-47 46l47 47h102l47 -47zM443 399l46 -47v-75l-47 -47l-46 46v76z" />
    <glyph glyph-name="question" unicode="?" horiz-adv-x="386" 
d="M243 535h-157l-47 47l46 46h158l46 -47zM100 307l47 -47v-82l-47 -47l-46 47v84zM255 376v149l44 43l2 2l47 -47v-147l-47 -46zM243 270h-84l-47 47l46 47h85l47 -47zM178 52l-47 -46h-64l-47 46l47 47h65l1 -2z" />
    <glyph glyph-name="at" unicode="@" horiz-adv-x="738" 
d="M204 495l49 48h136l48 -48l-49 -48h-135zM446 486l48 -48v-64l-48 -48l-48 49v63zM446 308l48 -48v-56l-48 -48l-48 49v54zM195 157l-48 48v54l48 49l48 -49v-54zM437 147l-49 -49h-135l-49 50l48 47h137zM204 317l48 48h137l48 -47l-49 -49h-136zM684 626v-162l-46 -46
l-47 47v160l47 47zM684 350v-153l-47 -46l-46 47v150l47 47zM626 146q-12 -13 -24 -24.5l-23 -22.5h-78l-48 47l46 46h80zM411 721l169 1l46 -46q-12 -13 -24 -24.5l-23 -22.5h-166l-2 2q-44 42 -45 45zM83 677q45 46 45 45l1 2h167l47 -47l-47 -47h-166zM74 390l47 -47
v-311l-22.5 -23t-24.5 -24l-46 46l1 314zM132 20h303l46 -46l-47 -48h-301l-47 47zM75 669l11 -47l36 -160l-47 -48l-46 47v161z" />
    <glyph glyph-name="A" unicode="A" 
d="M109 577l47 46h163l46 -46l-20 -19.5t-27 -27.5h-163zM423 519v-148l-47 -47l-47 47v148l47 47zM421 256l2 -1v-213l-47 -47l-47 47v212l47 47zM97 324l-47 47v147l47 47l3 -2l44 -44v-148zM97 -4q-12 11 -20.5 20l-14.5 15l-12 11v213l47 46l47 -47v-211zM108 311l47 47
h163l47 -46l-48 -47h-162z" />
    <glyph glyph-name="B" unicode="B" horiz-adv-x="483" 
d="M119 577q12 13 24 24.5l23 22.5h163l46 -46l-47 -48h-163zM143 624l-83 -83v83h83zM433 520v-149l-46 -46l-48 47v147l47 47zM386 302q46 -45 45 -45l2 -2v-151l-47 -46l-47 47v150zM107 324l-47 47v148l47 47l47 -45v-150zM60 105v150l47 47l47 -47v-150l-47 -47z
M375 46l-47 -46h-162l-48 47l46 46h164zM143 0h-83v82zM119 312l46 46h163l47 -46l-48 -47h-162z" />
    <glyph glyph-name="C" unicode="C" horiz-adv-x="419" 
d="M108 575q12 13 24 24.5l23 22.5h208l46 -46l-47 -47h-207zM96 323l-46 46v148l47 47l2 -2l44 -44v-148zM50 103v150q7 8 18.5 19.5l27.5 27.5l47 -47v-149l-47 -47zM362 91q10 -9 21.5 -20.5l25.5 -25.5q-12 -13 -24 -24.5l-23 -22.5h-207l-48 47l47 46h208z" />
    <glyph glyph-name="D" unicode="D" horiz-adv-x="483" 
d="M119 576q45 45 46 47h163l47 -46l-47 -47h-163zM143 623l-83 -82v82h83zM433 519v-149l-47 -46l-47 47v148l47 47zM386 301q46 -45 45 -45l2 -1v-151l-47 -47l-47 47v150zM107 324l-47 46v148l47 47l47 -44v-150zM107 58q-12 11 -20.5 20l-14.5 15l-12 11v150l47 47
l47 -47v-149zM375 46l-47 -47h-163l-47 47l46 46h164zM143 -1h-83v82z" />
    <glyph glyph-name="E" unicode="E" horiz-adv-x="450" 
d="M118 576l47 47h208l47 -46l-48 -47h-207zM142 623l-82 -82v82h82zM107 324l-47 46v148l47 47l2 -2l44 -44v-148zM60 104v150l47 47l46 -47v-149l-47 -47zM373 92l18.5 -18t27.5 -28l-46 -47h-208l-47 47l46 46h209zM60 81l53 -52.5t29 -29.5h-82v82zM118 311l47 47h131
l46 -47l-47 -47h-130z" />
    <glyph glyph-name="F" unicode="F" horiz-adv-x="430" 
d="M118 574l47 47h208l47 -47l-48 -47h-207zM142 621l-82 -83v83h82zM107 321l-47 47v147l47 48l2 -3l44 -43v-149zM60 39v213l47 46l46 -46v-212l-47 -47zM118 308l47 47h131l46 -46l-47 -47h-130z" />
    <glyph glyph-name="G" unicode="G" horiz-adv-x="452" 
d="M108 576l47 47h208l47 -46l-48 -47h-207zM422 256v-152l-46 -47l-47 47v150l47 47zM97 324l-47 46v148l47 47l2 -2l44 -43v-149zM50 104v150l47 47l46 -47v-149l-47 -47zM364 46l-46 -47h-163l-47 47l46 46h164zM220 311l47 47h51l46 -47l-47 -47h-50z" />
    <glyph glyph-name="H" unicode="H" horiz-adv-x="472" 
d="M422 585v-209l-46 -46l-47 47v207l47 47zM422 262v-213l-46 -47l-47 47v211l2 2q43 42 45 45zM97 329l-47 47v208l47 47l47 -46v-209zM50 49v211l47 47q12 -13 24 -24.5l23 -22.5v-210q-47 -47 -48 -47zM108 317l47 46h163l46 -46q-12 -13 -24 -24.5l-23 -22.5h-162z" />
    <glyph glyph-name="I" unicode="I" horiz-adv-x="194" 
d="M144 586v-209l-46 -46l-48 47v207l47 47zM97 308q46 -45 45 -45l2 -213l-47 -46l-47 46v211l2 2q45 43 45 45z" />
    <glyph glyph-name="J" unicode="J" horiz-adv-x="452" 
d="M402 586v-211l-46 -46l-47 47v209l47 47zM402 261v-153l-47 -46l-28.5 28.5t-17.5 18.5v150l47 47zM76 62q-12 11 -20.5 20l-14.5 15l-11 12v150l46 47l47 -47v-150zM297 97q12 -11 47 -47l-47 -47h-162l-48 48l47 46h163z" />
    <glyph glyph-name="K" unicode="K" horiz-adv-x="472" 
d="M372 532l-146 -150h-66v67l145 149h67v-66zM422 267v-214l-46 -47q-13 12 -24.5 24l-22.5 23v212l47 47zM97 335q-16 15 -27.5 27l-19.5 20v209l47 47l2 -2l44 -43v-211zM50 53v212l47 47q46 -46 46 -47v-212q-46 -46 -47 -46zM108 322l47 47h163l46 -46l-47 -48h-162z
" />
    <glyph glyph-name="L" unicode="L" horiz-adv-x="375" 
d="M97 328l-47 46v210l47 47l2 -2q42 -42 43 -42l2 -2v-211zM50 108v150l47 47l47 -47v-150l-47 -47zM365 49l-47 -46h-163l-47 47l46 46h164zM133 3h-83v82z" />
    <glyph glyph-name="M" unicode="M" horiz-adv-x="753" 
d="M109 585l46 47h163l47 -46l-47 -47h-163zM423 528v-149l-2 -1l-2 -2l-43 -43l-47 47v148l47 46zM421 265l2 -1v-214l-47 -46l-47 47v212l47 47zM97 333l-47 46v148l47 47l3 -2l44 -44v-148zM50 51v212l47 47l47 -47v-212l-47 -47zM389 585q44 45 47 47h163l46 -46
l-47 -47h-162zM703 528v-149l-46 -46l-48 47v147l47 47zM656 310l20 -20t15 -14l12 -11v-215l-47 -46l-47 47v212z" />
    <glyph glyph-name="N" unicode="N" 
d="M109 590l47 46h163l46 -46l-29 -28.5t-18 -18.5h-163zM423 532v-148l-47 -47l-47 47v148l47 47zM421 269l2 -1v-213l-47 -47q-12 13 -24 24.5l-23 22.5v212l47 47zM97 337l-47 47v147l47 47l47 -44v-150zM97 9q-12 11 -20.5 20l-14.5 15l-12 11v213l47 46l47 -47v-211z
" />
    <glyph glyph-name="O" unicode="O" horiz-adv-x="472" 
d="M108 575l47 47h163l46 -47l-47 -47h-162zM422 518v-149l-46 -46l-47 47v147l47 47zM422 255v-153l-46 -46l-47 47v150l47 47zM96 322l-26 26t-20 21v148l47 47l2 -3l44 -43v-149zM96 56q-12 11 -20.5 20l-14.5 15l-11 12v150l46 47l47 -47v-150zM364 44l-47 -47h-162
l-48 48l47 46h163z" />
    <glyph glyph-name="P" unicode="P" horiz-adv-x="452" 
d="M108 580q13 12 24.5 24l22.5 23h163l47 -47l-48 -47h-162zM132 627l-82 -83v83h82zM422 523v-149l-46 -46l-47 47v147l47 47zM97 327l-47 47v148l47 47l2 -3l44 -43v-149zM50 47v211l47 47l46 -47v-210l-47 -47zM108 315l47 46h163l46 -46l-47 -47h-162z" />
    <glyph glyph-name="Q" unicode="Q" horiz-adv-x="472" 
d="M108 575l47 47h163l46 -47l-47 -47h-162zM422 518v-149l-46 -46l-47 47v147l47 47zM422 255v-153l-46 -46l-47 47v150l47 47zM97 322l-47 47v148l47 47l2 -3l44 -43v-149zM96 56q-12 11 -20.5 20l-14.5 15l-11 12v150l47 47q11 -12 20 -20.5l15 -14.5l11 -12v-150z
M364 44l-47 -47h-162l-47 48l46 46h164zM422 -10v-46l-46 -46l-47 47v44l47 47z" />
    <glyph glyph-name="R" unicode="R" 
d="M109 575l46 47h163l47 -47l-32 -32t-16 -15h-162zM133 622l-83 -83v83h83zM423 518v-149l-47 -47l-47 47v148l47 47zM421 255l2 -2v-211l-47 -47l-47 47v211l47 47zM97 322l-47 47v147l47 47l2 -2q42 -42 43 -42l2 -1v-149zM97 -4q-12 11 -20.5 20l-14.5 15l-12 11v211
l47 46l47 -46v-210zM108 309l47 47h163l46 -46q-12 -13 -24 -24.5l-23 -22.5h-162z" />
    <glyph glyph-name="S" unicode="S" horiz-adv-x="432" 
d="M88 575l47 47h202l46 -47l-24 -24l-23 -23h-201zM402 255v-153l-46 -46l-47 47v150l47 47zM77 322l-47 47v148l47 47l2 -3l44 -43v-149zM344 44l-46 -47h-204l-47 48l46 46h205zM88 310l47 46h163l46 -46l-47 -47h-162z" />
    <glyph glyph-name="T" unicode="T" horiz-adv-x="408" 
d="M215 575l47 47h90l46 -46l-47 -48h-89zM203 323l-47 46v148l47 47l3 -3q42 -41 42 -42l2 -1v-149zM156 41v212l47 47q18 -19 30 -30.5l17 -16.5v-212l-47 -47zM10 576l47 47h90l46 -46l-37 -48h-99z" />
    <glyph glyph-name="U" unicode="U" 
d="M423 575v-208l-47 -47l-47 47v208l47 47zM423 252v-152l-47 -47l-47 47v150l47 47zM97 320l-47 47v207l47 47l2 -2q42 -42 43 -42l2 -210zM97 54q-12 11 -20.5 20l-14.5 15l-12 11v151l47 46l47 -47v-149zM365 42q-13 -12 -24.5 -24l-22.5 -23h-163l-47 48l46 46h164z
" />
    <glyph glyph-name="V" unicode="V" horiz-adv-x="500" 
d="M450 578v-209l-4 -3q-40 -40 -42 -43l-1 -1l-47 47v208l47 47zM347 358q45 -44 45 -46l2 -1v-211l-47 -47q-12 13 -24 24.5l-23 22.5v211zM97 318l-47 47v207l47 47l3 -2l44 -44v-208zM155 54q-46 46 -47 46v211l47 46l47 -46v-210zM336 42q-13 -12 -24.5 -24l-22.5 -23
h-75l-48 48l46 46h77z" />
    <glyph glyph-name="W" unicode="W" horiz-adv-x="798" 
d="M450 584v-208l-47 -47l-47 47v208l47 47zM394 319v-212l-47 -47q-12 13 -24 24.5l-23 22.5v210l47 47zM97 325l-47 46v208l47 47l47 -44v-210zM155 61q-12 11 -20.5 20l-14.5 15l-12 11v211l47 46l47 -47v-209zM334 51l-47 -47h-75l-47 48l46 46h77zM748 581v-208
l-46 -47l-47 47v208l47 47zM692 316v-212l-46 -47l-47 47v210l47 47zM407 104v211l47 46l46 -47v-209l-47 -47zM634 46q-12 -13 -24 -24.5l-23 -22.5h-75l-47 47l46 46h77z" />
    <glyph glyph-name="X" unicode="X" 
d="M423 579v-159l-47 -47l-47 47v159l47 47zM423 196v-152l-47 -47l-47 47v150l47 47zM144 420l-23 -22.5t-24 -24.5l-47 47v158l47 47l3 -2l44 -44v-159zM97 -2q-12 11 -20.5 20l-14.5 15l-12 11v150l47 47l47 -47v-150zM109 360l46 47h163l47 -46l-48 -47h-162zM109 251
l46 47h163l47 -47l-48 -47h-162z" />
    <glyph glyph-name="Y" unicode="Y" horiz-adv-x="433" 
d="M403 578v-148l-47 -47l-47 47v148l47 47zM215 358q45 -44 45 -45l1 -266l-47 -46l-46 46v264zM77 383l-47 47v147l48 47l2 -2l44 -43v-149zM224 372l27.5 27.5t18.5 19.5h26l46 -47l-47 -47h-25zM88 372l47 47h26l46 -47l-47 -47h-25z" />
    <glyph glyph-name="Z" unicode="Z" horiz-adv-x="471" 
d="M239 534h-162l-47 47l46 46h163l46 -47zM187 232l47 -47v-80l-47 -47l-47 46q0 20 0.5 41t1.5 42zM250 452v72l47 45l47 -47v-71l-47 -46zM245 93h149l47 -46l-48 -48h-148l-47 47zM201 242v147l46 44l48 -47v-144l-47 -47z" />
    <glyph glyph-name="bracketleft" unicode="[" horiz-adv-x="292" 
d="M75 323l47 -47v-82l-47 -47l-46 47v84zM75 341l-48 46v144l47 46l2 -2l42 -42l4 -1v-144zM82 584l47 47h70l47 -47l-47 -46h-70q-1 0 -47 46zM121 82v-152l-3 -2q-2 0 -42 -42l-3 -2l-47 47q1 13 1.5 33t0.5 42v42.5v33.5l46 46zM128 -77h71l47 -46l-32 -31.5t-15 -15.5
h-70l-47 47zM109 -171h-82v83zM27 548v82h82z" />
    <glyph glyph-name="backslash" unicode="\" horiz-adv-x="268" 
d="M73 398l-47 47v141l48 47l2 -2l42 -42l2 -2v-142zM122 188q-12 11 -20.5 20l-14.5 15q-7 7 -11 12v144l47 48l46 -45v-147zM177 -15l-46 46v141l47 47l46 -46v-142z" />
    <glyph glyph-name="bracketright" unicode="]" horiz-adv-x="292" 
d="M242 278l2 -1v-83l-47 -47l-46 47v82l47 47zM151 388v144l3 1l42 42l2 2l47 -46q1 -14 0 -32t-1 -40v-72l-47 -46zM144 538h-71l-47 46l47 47h70l47 -47zM198 128l46 -46q1 -13 1.5 -33t0.5 -41.5v-42v-34.5l-34.5 -34.5l-12.5 -12.5l-2 2l-42 42l-4 1v153zM190 -123
q-4 -5 -11 -12l-35 -35h-71q-3 4 -14.5 15.5l-31.5 31.5l46 46h71zM245 -88v-83h-82l48 48.5zM163 630h82v-82z" />
    <glyph glyph-name="asciicircum" unicode="^" horiz-adv-x="213" 
d="M156 531l-23 24v32l23 23l24 -23v-33q-1 -1 -5 -4q-3 -2 -7.5 -7t-11.5 -12zM60 610l24 -24v-31l-24 -24l-23 24v32zM127 592h-38l-23 23l24 24h37l24 -23z" />
    <glyph glyph-name="underscore" unicode="_" horiz-adv-x="484" 
d="M40 1h476v-35h-476v35z" />
    <glyph glyph-name="grave" unicode="`" horiz-adv-x="103" 
d="M70 641l41 -40v-32h-33l-40 38v34h32z" />
    <glyph glyph-name="a" unicode="a" horiz-adv-x="417" 
d="M93 393l48 48h136l48 -48l-49 -49h-135zM382 -3h-87l87 87v-87zM334 384l48 -48v-64l-48 -48l-48 49v63zM334 206l48 -48v-55l-48 -48l-48 48v55zM83 55l-48 48v55l48 48l49 -48v-54zM325 45l-48 -48h-136l-49 49l48 48h137zM92 215l49 48h136l48 -47l-49 -49h-135z" />
    <glyph glyph-name="b" unicode="b" horiz-adv-x="417" 
d="M93 397l48 48h136l48 -48l-49 -49h-135zM334 388l48 -48v-64l-48 -48l-49 49v63zM334 210l48 -48v-55l-48 -49l-49 49v54zM83 228l-48 48v63l49 48l48 -47v-64zM83 59l-48 48v55l48 48l49 -49v-54zM325 49l-49 -48h-135l-49 49l48 47h137zM35 89l88 -88h-88v88zM83 404
l-48 48v125l48 48l48 -48v-125z" />
    <glyph glyph-name="c" unicode="c" horiz-adv-x="345" 
d="M93 393l48 48h136l48 -48l-49 -49h-135zM83 224l-48 48v63l49 49l48 -48v-64zM83 55l-48 48v55l48 48l49 -48v-54zM325 45l-49 -48h-135l-49 49l48 48h137z" />
    <glyph glyph-name="d" unicode="d" horiz-adv-x="417" 
d="M276 348h-135l-49 49l48 48h136l48 -48zM132 340v-63l-49 -49l-48 48v64l48 48zM132 161v-54l-49 -49l-48 49v55l48 48zM285 276v64l48 47l49 -48v-63l-48 -48zM285 107v54l49 49l48 -48v-55l-48 -48zM140 97h137l48 -47l-49 -49h-135l-49 48zM382 1h-88l88 88v-88z
M286 452v125l48 48l48 -48v-125l-48 -48z" />
    <glyph glyph-name="e" unicode="e" horiz-adv-x="416" 
d="M92 393l49 48h136l47 -48l-48 -49h-136zM333 384l48 -48v-64l-48 -48l-48 49v63zM83 224l-48 48v63l48 49l48 -48v-64zM82 55l-47 48v55l48 48l48 -48v-54zM324 45l-48 -48h-135l-49 49l47 48h137zM92 215l48 49h136l48 -48l-49 -49h-135z" />
    <glyph glyph-name="f" unicode="f" horiz-adv-x="335" 
d="M93 581l48 48h136l48 -48l-48 -48h-136zM84 189l48 -48v-96l-49 -48l-48 49v95zM84 412l-48 48v63l48 49l48 -48v-63zM83 206l-47 48v92l48 48l48 -48v-92zM286 403l-48 -48h-97l-49 49l48 47h98z" />
    <glyph glyph-name="g" unicode="g" horiz-adv-x="417" 
d="M93 395l48 48h136l48 -48l-49 -48h-135zM334 386l48 -48v-64l-48 -48l-48 49v63zM334 208l48 -48v-55l-48 -48l-48 48v55zM84 226l-49 48v63l49 49l48 -48v-63zM83 57l-48 48v55l49 48l48 -48v-54zM325 48l-48 -49h-136l-49 49l48 48h137zM334 41l48 -48v-64l-48 -48
l-48 48v63zM328 -129l-48 -49h-136l-49 49l48 48h137z" />
    <glyph glyph-name="h" unicode="h" horiz-adv-x="418" 
d="M93 393l49 49h136l48 -48l-49 -49h-135zM335 385l48 -48v-81l-48 -48l-49 48v80zM335 190l48 -48v-97l-48 -48l-49 49v95zM84 208l-48 48v80l48 48l48 -48v-80zM84 -2l-48 48v95l48 48l48 -48v-95zM84 622l48 -48v-124l-48 -48l-49 49v123z" />
    <glyph glyph-name="i" unicode="i" horiz-adv-x="228" 
d="M122 225l48 -48v-131l-48 -47l-49 48v129zM121 232l-48 48v113l49 48l48 -48v-112zM193 580l-47 -47h-65q-4 5 -11 12l-15 14.5t-20 20.5l46 46l67 -1z" />
    <glyph glyph-name="j" unicode="j" horiz-adv-x="219" 
d="M107 176l48 -48v-193l-48 -48l-48 48v192zM107 183l-48 48v184l48 48l49 -49v-182zM107 -132l-48 -48h-7l-48 48l48 48h7zM185 580l-78 -47h-33l-23 22.5t-24 24.5l46 46h66v-1z" />
    <glyph glyph-name="k" unicode="k" horiz-adv-x="417" 
d="M83 -4l-48 48v114l48 48l48 -48v-113zM92 215l48 48h135l48 -47l-49 -49h-134zM334 0l-48 48v114l48 48l48 -48v-114zM82 226l-47 48v114l48 48l48 -48v-114zM293 356l-80 -80h-68v68l81 80h67v-68zM82 441l-47 48v88l48 48l48 -48v-88z" />
    <glyph glyph-name="l" unicode="l" horiz-adv-x="166" 
d="M83 331l47 -48v-233l-47 -48l-48 48v233zM83 338l-48 48v189l48 48l48 -48v-188z" />
    <glyph glyph-name="m" unicode="m" horiz-adv-x="665" 
d="M94 395l48 48h136l47 -48l-48 -48h-135zM334 386l48 -48v-86l-48 -47l-48 48v85zM334 187l48 -48v-90l-48 -48l-48 48v89zM85 205l-48 47v85l48 49l48 -48v-85zM84 1l-47 48v90l48 47l48 -48v-89zM343 399l48 48h135l48 -48l-49 -48h-134zM583 390l47 -47v-86l-47 -48
l-49 48v85zM583 191l47 -48v-90l-47 -48l-49 48v90zM35 443h87l-87 -87v87z" />
    <glyph glyph-name="n" unicode="n" horiz-adv-x="417" 
d="M94 397l48 48h135l48 -48l-48 -48h-135zM334 388l48 -48v-85l-48 -48l-48 48v85zM334 189l48 -48v-90l-48 -48l-48 48v90zM85 207l-48 48v84l48 49l48 -48v-85zM84 3l-47 48v90l48 48l48 -48v-89zM35 444h87l-87 -87v87z" />
    <glyph glyph-name="o" unicode="o" horiz-adv-x="415" 
d="M92 397l48 48h136l47 -48l-48 -48h-135zM332 388l48 -48v-63l-48 -48l-48 48v63zM332 211l48 -48v-55l-48 -48l-48 48v55zM83 229l-48 48v62l48 49l48 -48v-63zM83 61l-48 47v55l48 48l48 -48v-54zM323 51l-48 -48h-135l-48 49l47 47h136z" />
    <glyph glyph-name="p" unicode="p" horiz-adv-x="415" 
d="M140 90h135l49 -48l-48 -48h-135l-48 48zM284 99v62l49 49l47 -48v-64l-47 -47zM284 276v54l48 49l48 -48v-56l-47 -47zM131 162v-63l-48 -48l-48 49v62l48 48zM131 330v-54l-48 -48l-48 48v54l48 48zM276 340h-137l-47 47l49 49h134l48 -48zM35 436h87l-87 -88v88z
M131 -13v-125l-48 -47l-48 48v124l48 48z" />
    <glyph glyph-name="q" unicode="q" horiz-adv-x="416" 
d="M323 42l-48 -48h-135l-48 48l49 48h134zM83 51l-48 47v64l48 48l48 -49v-62zM83 228l-48 47v56l48 48l48 -49v-54zM333 210l48 -48v-62l-49 -49l-47 48v63zM333 378l48 -48v-54l-48 -48l-48 48v54zM92 388l48 48h135l49 -49l-48 -47h-136zM381 348l-88 88h88v-88zM333 35
l48 -48v-124l-48 -48l-48 47v125z" />
    <glyph glyph-name="r" unicode="r" horiz-adv-x="295" 
d="M84 191l47 -48v-96l-47 -48l-49 49v94zM83 207l-47 47v92l48 48l48 -48v-91zM285 403l-48 -48h-96l-48 49l47 47h97z" />
    <glyph glyph-name="s" unicode="s" horiz-adv-x="395" 
d="M289 349h-158l-49 48l48 48h158l48 -48zM121 340v-63l-48 -48l-48 48v63l48 48zM274 109v54l48 48l48 -48v-55l-47 -47zM97 99h169l48 -47l-49 -49h-168l-48 48zM266 172h-135l-48 48l47 48h136l48 -48z" />
    <glyph glyph-name="t" unicode="t" horiz-adv-x="299" 
d="M84 388l48 -48v-238l-48 -48l-49 48v238zM84 396l-48 48v126l48 48l48 -48v-125zM289 390l-48 -48h-97l-49 49l48 47h98zM278 46l-48 -48h-88l-49 49l48 48h88z" />
    <glyph glyph-name="u" unicode="u" horiz-adv-x="419" 
d="M324 44l-48 -49h-136l-48 48l49 49h135zM83 52l-48 48v87l48 48l48 -49v-85zM83 253l-48 48v92l48 48l48 -49v-90zM334 235l48 -48v-85l-48 -49l-49 48v86zM334 440l48 -48v-90l-48 -48l-49 48v90zM384 -4h-88l88 88v-88z" />
    <glyph glyph-name="v" unicode="v" horiz-adv-x="445" 
d="M410 409v-122l-46 -46l-47 47v121l47 47zM308 276q46 -45 45 -45l2 -2v-124l-47 -47l-47 47v124zM81 236q-12 11 -20.5 20l-14.5 15q-7 7 -11 12v121l47 47l2 -2l42 -42l2 -2v-122zM93 105v124l46 47l47 -47v-123l-47 -47zM297 47l-47 -47h-52l-27.5 27.5l-19.5 19.5
l46 46h53z" />
    <glyph glyph-name="w" unicode="w" horiz-adv-x="723" 
d="M410 409v-122l-46 -46l-47 47v121l47 47zM353 231l2 -2v-124l-47 -47l-47 47v124l47 47zM81 236l-46 47v121l47 47l2 -2l42 -42l2 -2v-122zM93 105v124l46 47l47 -47v-123l-47 -47zM297 47l-47 -47h-52l-47 47l46 46h53zM688 409v-122l-46 -46l-47 47v121l47 47zM632 229
v-124l-46 -47l-47 47v124l47 47zM417 59q-46 46 -47 46v124l47 47l47 -47v-123zM574 47q-12 -13 -24 -24.5l-23 -22.5h-51l-21 20l-15 15l-12 12l46 46h54z" />
    <glyph glyph-name="x" unicode="x" horiz-adv-x="411" 
d="M375 409v-74l-45 -45l-47 47v72l47 47zM330 158l19.5 -20.5l14.5 -14.5q6 -7 11 -11l1 -65l-46 -47l-33.5 33.5l-13.5 13.5v64zM82 290l-47 46v72l47 47l3 -2q40 -42 42 -42l2 -74zM82 1q-12 11 -20.5 20l-14.5 15q-7 7 -12 11v64l47 46l47 -46v-64l-35 -35
q-7 -7 -12 -11zM93 277q39 38 47 47h132l46 -47l-47 -47h-131zM93 167l47 47h132l46 -46l-47 -47h-131z" />
    <glyph glyph-name="y" unicode="y" horiz-adv-x="419" 
d="M324 50l-48 -49h-136l-48 48l49 49h135zM83 58l-48 48v82l48 48l48 -49v-80zM83 254l-48 48v96l48 49l48 -49v-95zM334 236l48 -48v-81l-48 -48l-48 48v80zM334 446l48 -48v-96l-48 -48l-48 49v95zM336 43l48 -48v-64l-48 -48l-49 49v62zM330 -127l-49 -49h-136l-49 49
l48 48h137z" />
    <glyph glyph-name="z" unicode="z" horiz-adv-x="384" 
d="M10 390l48 49h105l48 -48l-49 -49h-104zM220 382l48 -49v-89l-48 -48l-49 48v89zM374 48l-49 -49h-105l-47 48l47 49h106zM163 56l-48 48v77l48 48l49 -48v-76z" />
    <glyph glyph-name="braceleft" unicode="{" horiz-adv-x="487" 
d="M261 332l-47 -47h-103l-47 47l47 46h104v-1q1 0 46 -45zM65 140l47 47h102l47 -47l-47 -46h-103zM99 274v-77l-45 -46l-48 48v75l47 46zM270 341l-48 47v143l47 47l48 -45v-145zM278 584q0 1 46 47h70l19.5 -19l27.5 -27l-46 -47h-71zM316 82l-3 -154l-42 -42l-2 -2
l-47 47v75.5t1 75.5l47 46zM277 -123q46 46 46 47h71l47 -47l-47 -47h-70z" />
    <glyph glyph-name="bar" unicode="|" horiz-adv-x="192" 
d="M89 366l49 -48v-156l-48 -48l-48 49q0 15 -0.5 40t-0.5 49.5t-0.5 43.5t-0.5 21zM88 373l-47 48v154l48 48l48 -48v-154zM91 -151l-48 47v160l48 48l48 -49v-158z" />
    <glyph glyph-name="braceright" unicode="}" horiz-adv-x="479" 
d="M233 378h104l46 -46q-12 -13 -24 -24.5l-23 -22.5h-103l-46 47zM336 94h-103l-46 46l46 47h103q11 -12 20 -20.5l15 -14.5q7 -7 11 -12zM394 320l47 -46v-75l-47 -48l-46 46v77zM130 388v144l4 1q0 1 42 42l2 3l47 -47q-1 -35 -1 -71v-72l-47 -47q-8 9 -47 47zM124 538
h-71l-47 47l47 46h70l47 -47zM178 128q43 -42 46 -46q1 -14 1 -34v-41.5v-41.5t1 -34l-47 -47l-2 2l-42 42l-4 2v152zM170 -123l-47 -47h-70l-46 47l46 47h71q0 -1 46 -47z" />
    <glyph glyph-name="asciitilde" unicode="~" horiz-adv-x="269" 
d="M125 551q-1 0 -23 -22l-17 -1l-24 23l23 24h17q1 -2 6.5 -7t17.5 -17zM152 523v-22l-23 -23l-24 23v22l24 24zM201 475l-22 -22l-18 -1l-23 23l23 23h17v0l2 -2l7 -7zM228 526v-23l-23 -23l-24 23v22l24 24zM79 522v-23l-23 -23l-24 24v21q10 12 24 24z" />
    <glyph glyph-name="uni00A0" unicode="&#xa0;" horiz-adv-x="0" 
 />
    <glyph glyph-name="exclamdown" unicode="&#xa1;" horiz-adv-x="220" 
d="M158 4v-129l-48 -49l-48 48v131l48 48zM62 109v112l48 48l48 -48v-113l-48 -48zM31 406l47 47h64l47 -47l-46 -47h-66l-1 2q0 -2 -45 45z" />
    <glyph glyph-name="cent" unicode="&#xa2;" horiz-adv-x="370" 
d="M75 395l48 48h105l48 -48l-49 -49h-104zM65 226l-48 48v63l49 48l48 -48v-63zM65 56l-48 48v55l48 48l49 -48v-54zM276 47l-49 -49h-104l-49 49l48 48h106zM288 560l48 -48v-64l-48 -48l-48 48v63zM280 33l48 -48v-64l-48 -48l-48 49v63z" />
    <glyph glyph-name="sterling" unicode="&#xa3;" horiz-adv-x="576" 
d="M203 576l48 48h137l47 -48l-48 -48h-136zM193 305l-48 48v165l49 49l48 -48v-166zM193 58l-48 48v132l48 49l49 -49v-131zM396 295l-48 -48h-97l-49 49l48 48h98zM448 568l48 -48v-64l-48 -48l-49 49v63zM205 48l49 49h175l48 -48l-29 -49h-195zM27 41q46 46 47 46h71
l46 -47l-32 -32t-15 -14h-70zM495 191l48 -48v-40l-49 -48l-48 48v40zM66 339h71l46 -47l-46 -47h-71l-47 47z" />
    <glyph glyph-name="currency" unicode="&#xa4;" horiz-adv-x="498" 
d="M134 431l48 48h136l47 -48l-48 -48h-135zM367 178l-48 -48h-135l-49 49l48 47h136zM117 515v-43v-39h-40h-42zM41 174h41h41v-82zM378 513l29 -28.5l53 -53.5h-41h-41v82zM378 94v42v40h82l-40.5 -41zM375 188l-49 48v136l48 48l49 -49v-135zM126 188l-48 48v136l48 48
l48 -49v-135z" />
    <glyph glyph-name="yen" unicode="&#xa5;" horiz-adv-x="442" 
d="M396 583v-148l-46 -47l-47 47v147l47 47zM71 388l-46 47v147l47 47l2 -3q42 -41 42 -42l2 -1v-148zM83 375q12 13 24 24.5l23 22.5h162l46 -46l-47 -47h-162zM209 173l-48 48v52l48 48l48 -47v-53zM212 -3l-48 48v60l48 48l48 -48v-60zM84 207h71l46 -46l-46 -47h-70
l-47 47zM267 210h71l47 -46l-47 -47h-70l-47 47z" />
    <glyph glyph-name="brokenbar" unicode="&#xa6;" horiz-adv-x="191" 
d="M89 298l-48 48v229l48 48l48 -48v-229zM90 -151l-49 47v286l48 48l48 -48v-30t0.5 -56t0.5 -67.5t0.5 -65.5t0.5 -49t0 -17z" />
    <glyph glyph-name="section" unicode="&#xa7;" horiz-adv-x="438" 
d="M88 579q12 13 24 24.5l23 22.5h201l46 -46l-25 -24l-17 -17q-4 -4 -5 -6h-200zM354 314q46 -45 45 -45l2 -2v-89l-47 -46l-46 46v89zM76 336l-46 47v138l47 47l2 -2l42 -42l2 -1v-140zM88 324l46 46h163l46 -46l-47 -47h-162zM403 67l1 -144l-46 -46q-33 32 -47 47v141
l47 47zM79 134l-46 47v86l47 46l2 -2l42 -42l2 -1v-87zM346 -134l-46 -47h-203l-47 47l46 46h204zM91 121l47 47h162l46 -46l-47 -47h-162z" />
    <glyph glyph-name="dieresis" unicode="&#xa8;" horiz-adv-x="268" 
d="M235 607l-24 -24h-32l-23 24l23 23h33v-0.5t2 -2t7 -6.5zM117 607l-23 -24h-33l-23 23l23 24h33v-0.5t2 -2t7 -6.5z" />
    <glyph glyph-name="copyright" unicode="&#xa9;" horiz-adv-x="594" 
d="M539 458l1 -352l-46 -47q-13 12 -24.5 24l-22.5 23v350l47 47zM36 106v350l46 47l34.5 -34.5l12.5 -12.5v-350l-35 -35q-7 -7 -12 -11zM482 48l-46 -47h-295l-28 27.5l-20 19.5l47 46h296zM94 513l47 47h295l46 -47l-47 -47h-294zM221 410q5 6 9.5 10.5l7.5 7.5l6 6h104
l23 -24l-24 -23h-103zM215 284q-3 2 -24 23v74l24 24l1 -2l21 -21l1 -75zM191 174v75q21 21 24 23l6.5 -6.5l16.5 -16.5v-75q-23 -23 -24 -23zM371 145l-23 -24h-104l-24 24l23 23h105z" />
    <glyph glyph-name="ordfeminine" unicode="&#xaa;" horiz-adv-x="250" 
d="M64 614l24 24h68l24 -24l-24 -24h-68zM209 416h-44l44 44v-44zM185 609l24 -24v-32l-24 -24l-25 25v31zM185 520l24 -24v-27l-25 -24l-24 24v27zM59 445l-24 24v27l24 24l24 -24v-27zM180 440l-24 -24h-68l-24 24l23 24h69zM64 525l24 24h68l24 -24l-25 -24h-67z" />
    <glyph glyph-name="guillemotleft" unicode="&#xab;" horiz-adv-x="518" 
d="M406 416l-47 -46l-36 -1q-5 4 -12 11l-15 14.5t-20 20.5l46 47h18.5t19.5 1l1 -2zM277 224q4 5 11 12l35 35h36l47 -46l-47 -47h-36zM311 358v-77l-46 -46l-47 47v75l22.5 23t24.5 24zM421 -4l-47 46v129l47 47l13 -12.5t30 -30.5l3 -3v-130zM416 427l-47 47v129l47 47
l46 -46v-66v-64zM212 411l-47 -47l-37 -1q-4 5 -11 12l-15 14.5t-20 20.5l46 46h18t19 1l2 -1zM82 218l47 47l36 1l47 -47l-47 -46q-9 -1 -18 -1h-18q-1 0 -47 46zM117 352v-77l-46 -46l-12 12l-15 15l-20 21v75l46 46zM227 -10l-24.5 24.5l-22.5 22.5v129l47 46l46 -46v-65
v-65zM222 422l-47 46v129l47 47l46 -46v-66v-64z" />
    <glyph glyph-name="logicalnot" unicode="&#xac;" horiz-adv-x="382" 
d="M336 264l1 -90l-47 -47l-46 47v89l47 46zM24 319l46 47h163l46 -46q-29 -30 -47 -47h-162z" />
    <glyph glyph-name="uni00AD" unicode="&#xad;" horiz-adv-x="399" 
d="M371 308l-48 -48h-239l-49 49l48 48h240z" />
    <glyph glyph-name="registered" unicode="&#xae;" horiz-adv-x="594" 
d="M539 458l1 -352l-46 -47q-13 12 -24.5 24l-22.5 23v350l47 47zM36 106v350l46 47l34.5 -34.5l12.5 -12.5v-350l-35 -35q-7 -7 -12 -11zM482 48l-46 -47h-295l-28 27.5l-20 19.5l47 46h296zM94 513l47 47h295l46 -47l-47 -47h-294zM226 409l23 23h82l23 -23l-24 -24h-81z
M238 432l-41 -41v41h41zM383 380v-74l-23 -24l-24 24v74l24 23zM360 271q22 -22 22 -23h1v-106l-23 -23l-24 23v106zM220 282l-23 24v73l23 24l1 -1l21 -21l1 -75zM197 142v106l23 23l23 -23v-105q-6 -6 -10 -10.5t-7 -7.5l-6 -6zM226 276l23 23h82l23 -23l-24 -23h-81z" />
    <glyph glyph-name="macron" unicode="&#xaf;" horiz-adv-x="365" 
d="M90 615h190l23 -23l-23 -24h-190l-23 23z" />
    <glyph glyph-name="degree" unicode="&#xb0;" horiz-adv-x="225" 
d="M166 617l14 -14t6.5 -7t2 -2h0.5v-25.5t-1 -25.5l-23 -24q-12 13 -24 24l1 51zM36 543v51l24 23l23 -23v-51q-6 -6 -10.5 -10t-7.5 -7l-6 -6zM159 514l-23 -24h-47l-24 24l23 23h48zM66 622l23 23h48l23 -23l-24 -23h-47z" />
    <glyph glyph-name="plusminus" unicode="&#xb1;" horiz-adv-x="496" 
d="M242 361l-48 48v115l49 49l48 -48v-116zM239 129l-48 48v115l48 49l49 -48v-116zM469 350l-49 -48h-115l-48 48l48 48h115zM226 352l-48 -48h-115l-49 48l48 48h115zM400 44l-48 -49h-240l-48 49l48 48h239z" />
    <glyph glyph-name="twosuperior" unicode="&#xb2;" horiz-adv-x="257" 
d="M167 582h-100l-24 23l23 23h101l23 -23zM57 467l22 -22l1 -76l-23 -24l-24 24v75q1 1 5 4q3 2 7 6.5t12 12.5zM173 502l1 75l21 21l1 1q1 0 24 -23v-74q-22 -22 -24 -23zM86 363h102l23 -23l-24 -24h-101l-24 24zM167 449h-81l-23 23l23 24h81l24 -24z" />
    <glyph glyph-name="threesuperior" unicode="&#xb3;" horiz-adv-x="254" 
d="M162 588h-104q-22 22 -23 24l23 23h104q22 -22 23 -24zM168 508l1 75q0 1 21 21l1 2l23 -24v-74l-23 -23zM191 352l-23 23v75l23 24l23 -24v-75zM58 369h104l23 -23l-23 -23h-104q-21 20 -23 23zM162 455h-65q-11 12 -24 24l24 23h65l23 -23z" />
    <glyph glyph-name="acute" unicode="&#xb4;" horiz-adv-x="148" 
d="M158 636v-33l-39 -39h-33v33l41 39h31z" />
    <glyph glyph-name="mu" unicode="&#xb5;" horiz-adv-x="445" 
d="M333 44l-49 -49h-136l-48 48l49 49h136zM91 52l-48 48v87l48 48l49 -49v-85zM91 253l-48 48v92l48 48l49 -49v-90zM342 235l49 -48v-85l-49 -49l-48 48v86zM343 440l48 -48v-90l-49 -48l-48 48v90zM392 -4h-87l87 88v-88zM90 -155l-48 48v91l48 48l49 -36v-103z" />
    <glyph glyph-name="paragraph" unicode="&#xb6;" horiz-adv-x="391" 
d="M40 482h303v-303h-303v303z" />
    <glyph glyph-name="periodcentered" unicode="&#xb7;" horiz-adv-x="223" 
d="M193 290l-47 -47h-64l-47 47l46 46l67 -1z" />
    <glyph glyph-name="cedilla" unicode="&#xb8;" horiz-adv-x="102" 
d="M83 -43h-25l-12 12l12 12h25l12 -12zM85 -61v16l12 12l12 -12v-16l-12 -12zM85 -103v13l12 12l12 -12v-13l-12 -12zM49 -106h34l12 -11l-12 -13h-34l-12 12z" />
    <glyph glyph-name="onesuperior" unicode="&#xb9;" horiz-adv-x="183" 
d="M114 471l-24 25v83l25 24l24 -24v-83zM113 318l-23 24v96l24 24l25 -24q0 -6 -0.5 -21t-0.5 -31.5t-0.5 -29.5t-0.5 -14zM34 607l24 24h30l24 -24l-25 -24h-29z" />
    <glyph glyph-name="ordmasculine" unicode="&#xba;" horiz-adv-x="254" 
d="M65 613l24 24h68l24 -24l-24 -24h-68zM185 608l24 -24v-31l-24 -24l-24 24v31zM185 520l24 -24v-28l-24 -24l-24 25v27zM61 529l-24 24v31l24 24l24 -24v-31zM60 445l-23 24v27l24 24l24 -24v-27zM181 440l-24 -24h-68l-24 24l24 24h68z" />
    <glyph glyph-name="guillemotright" unicode="&#xbb;" horiz-adv-x="514" 
d="M130 461l1 2q10 -1 19.5 -1h18.5l46 -47l-35 -35q-7 -7 -12 -11l-36 1l-47 46zM168 178h-36l-47 47l47 46h36q11 -12 20 -20.5l15 -14.5q7 -7 11 -12zM226 404q13 -12 24.5 -24l22.5 -23v-75l-47 -47l-46 46v77zM24 42v130l3 3q19 20 30 30.5l13 12.5l47 -47v-129
l-47 -46zM29 474v64v66l46 46l47 -47v-129l-47 -47zM324 456l2 1q10 -1 19 -1h18l46 -46l-35 -35q-7 -7 -11 -12l-37 1l-47 47zM409 218q-46 -46 -47 -46h-18t-18 1l-47 46l47 47l36 -1zM421 398l46 -46v-75l-20.5 -21l-14.5 -15l-12 -12l-46 46v77zM218 36v65v65l46 46
l47 -46v-129l-22.5 -22.5l-24.5 -24.5zM223 468v64v66l3 3q20 19 30.5 30l12.5 13l47 -47v-129l-47 -46z" />
    <glyph glyph-name="onequarter" unicode="&#xbc;" horiz-adv-x="620" 
d="M96 492l-24 24v83l24 24l24 -24v-83zM94 338l-22 24v96l24 25l24 -25v-53q0 -19 -1 -29.5t0 -13.5zM16 627l24 24h30l24 -24l-25 -24h-29zM283 465v142l2 2q1 0 43 42l2 2l47 -47v-141l-47 -47zM234 255v147l46 45l48 -47v-145q-1 0 -47 -46zM179 52v142l46 45l47 -47
v-141l-46 -46l-17 16.5t-30 30.5zM570 287v-105l-23 -24l-23 24v105l23 24zM570 125v-1v-106l-23 -23l-23 23v106l23 23zM407 158q-2 3 -23 24v105q23 23 24 23l1 -1l21 -21l1 -106zM413 152l24 23h81l23 -23l-23 -23h-81z" />
    <glyph glyph-name="onehalf" unicode="&#xbd;" horiz-adv-x="611" 
d="M96 492l-25 24v83l25 24l24 -24v-83zM94 338l-23 24v96l25 25l24 -25q0 -6 -0.5 -21t-0.5 -31.5t-0.5 -29.5t-0.5 -14zM15 627l24 24h30l24 -24l-25 -24h-29zM283 465v142l2 2l42 42l2 2l12.5 -12.5l34.5 -34.5v-141q-2 -3 -14 -15l-32 -32zM233 255v147l47 45
l12.5 -12.5l34.5 -34.5v-145q-5 -4 -12 -11l-35 -35zM178 52v142l47 45l47 -47v-141q-5 -4 -16.5 -15.5l-30.5 -30.5zM527 267h-101l-23 24l23 23h101q22 -22 23 -24zM416 153l24 -24v-75l-23 -23l-24 23v75q1 1 4 5q2 3 6.5 7t12.5 12zM533 187l1 75q0 1 21 21l1 2l23 -24
v-74l-23 -23zM446 48h102l23 -23l-24 -23h-101l-24 23zM527 134h-81q-11 12 -24 24l24 23h81l23 -23z" />
    <glyph glyph-name="threequarters" unicode="&#xbe;" horiz-adv-x="627" 
d="M290 465v142l2 2l42 42l2 2l12.5 -12.5l34.5 -34.5v-141q-2 -3 -14 -15l-32 -32zM240 255v147l47 45l12.5 -12.5l34.5 -34.5v-145q-5 -4 -12 -11l-35 -35zM185 52v142l47 45l47 -47v-141q-5 -4 -16.5 -16t-30.5 -30zM577 287v-105l-24 -24l-23 24v105l23 24zM576 125
l1 -1v-106l-24 -23l-23 23v106l23 23zM437 182q-22 -22 -23 -24l-23 24v105l23 23l1 -1l21 -21h1v-106zM420 152l23 23h81l24 -23l-24 -23h-81zM144 598h-104l-23 23l23 24h104l23 -24zM150 518v75h1l21 21l1 1l23 -23v-74q-20 -21 -23 -23zM173 362l-23 23v75l23 23
l7.5 -7.5l15.5 -15.5v-75zM40 379h104l23 -23l-23 -24h-104q-22 22 -23 24zM144 465h-65l-24 24l24 23h65l23 -24z" />
    <glyph glyph-name="questiondown" unicode="&#xbf;" horiz-adv-x="376" 
d="M127 -83h157l47 -47l-46 -46h-158l-47 47zM270 145l-47 47v82l47 47l46 -47l-1 -84zM115 76v-149l-2 -1l-42 -42l-2 -2l-47 47v147l47 46zM127 182h84l47 -47l-46 -46h-85q-5 4 -12 11l-15 14.5t-20 20.5zM191 400l47 47h65l46 -47l-46 -47h-65l-2 2z" />
    <glyph glyph-name="Agrave" unicode="&#xc0;" 
d="M109 577l47 46h163l46 -46l-20 -19.5t-27 -27.5h-163zM423 519v-148l-47 -47l-47 47v148l47 47zM421 256l2 -1v-213l-47 -47l-47 47v212l47 47zM97 324l-47 47v147l47 47l3 -2l42 -42l2 -2v-148zM97 -4q-12 11 -20.5 20l-14.5 15q-7 7 -12 11v213l47 46l47 -47v-211z
M108 311l47 47h163l47 -46l-48 -47h-162zM241 769h1q11 -10 20.5 -20l19.5 -20v-32h-33l-39 38v34h31z" />
    <glyph glyph-name="Aacute" unicode="&#xc1;" 
d="M109 577l47 46h163l46 -46l-20 -19.5t-27 -27.5h-163zM423 519v-148l-47 -47l-47 47v148l47 47zM421 256l2 -1v-213l-47 -47l-47 47v212l47 47zM97 324l-47 47v147l47 47l3 -2l42 -42l2 -2v-148zM97 -4q-12 11 -20.5 20l-14.5 15q-7 7 -12 11v213l47 46l47 -47v-211z
M108 311l47 47h163l47 -46l-48 -47h-162zM283 768v-33l-39 -39h-33v33l41 39h31z" />
    <glyph glyph-name="Acircumflex" unicode="&#xc2;" 
d="M109 577l47 46h163l46 -46l-20 -19.5t-27 -27.5h-163zM423 519v-148l-47 -47l-47 47v148l47 47zM421 256l2 -1v-213l-47 -47l-47 47v212l47 47zM97 324l-47 47v147l47 47l3 -2l42 -42l2 -2v-148zM97 -4q-12 11 -20.5 20l-14.5 15q-7 7 -12 11v213l47 46l47 -47v-211z
M108 311l47 47h163l47 -46l-48 -47h-162zM285 666l-23 24v32l23 23l24 -23v-33h-1zM189 745l24 -24v-31l-24 -24l-23 24v32zM256 728h-38l-23 23l6 6q3 3 7.5 7t10.5 10h37l24 -23z" />
    <glyph glyph-name="Atilde" unicode="&#xc3;" 
d="M109 577l47 46h163l46 -46l-20 -19.5t-27 -27.5h-163zM423 519v-148l-47 -47l-47 47v148l47 47zM421 256l2 -1v-213l-47 -47l-47 47v212l47 47zM97 324l-47 47v147l47 47l3 -2l42 -42l2 -2v-148zM97 -4q-12 11 -20.5 20l-14.5 15q-7 7 -12 11v213l47 46l47 -47v-211z
M108 311l47 47h163l47 -46l-48 -47h-162zM245 761l-24 -24h-16l-24 24l24 23h17q-1 0 -1 -0.5t2.5 -2t7.5 -6.5zM272 733v-23l-23 -23l-24 24v21l24 24zM321 684l-22 -22l-18 -1l-23 23l23 24h17v-1zM348 735v-23l-23 -23l-23 24v22l23 23zM199 731v-23l-23 -23l-24 24v22
l24 23z" />
    <glyph glyph-name="Adieresis" unicode="&#xc4;" 
d="M109 577l47 46h163l46 -46l-20 -19.5t-27 -27.5h-163zM423 519v-148l-47 -47l-47 47v148l47 47zM421 256l2 -1v-213l-47 -47l-47 47v212l47 47zM97 324l-47 47v147l47 47l3 -2l42 -42l2 -2v-148zM97 -4q-12 11 -20.5 20l-14.5 15q-7 7 -12 11v213l47 46l47 -47v-211z
M108 311l47 47h163l47 -46l-48 -47h-162zM320 743l-23 -24h-33l-23 24l23 23h33h1q0 -1 22 -23zM203 743l-24 -24h-32l-24 24l24 23h32q-1 0 -0.5 -0.5t2.5 -2t7.5 -6.5t14.5 -14z" />
    <glyph glyph-name="Aring" unicode="&#xc5;" 
d="M109 577l47 46h163l46 -46l-20 -19.5t-27 -27.5h-163zM423 519v-148l-47 -47l-47 47v148l47 47zM421 256l2 -1v-213l-47 -47l-47 47v212l47 47zM97 324l-47 47v147l47 47l3 -2l42 -42l2 -2v-148zM97 -4q-12 11 -20.5 20l-14.5 15q-7 7 -12 11v213l47 46l47 -47v-211z
M108 311l47 47h163l47 -46l-48 -47h-162zM293 766l14 -14t6.5 -7t2 -2h0.5q-1 -13 -1 -25.5v-25.5l-23 -24q-12 13 -24 24l1 50zM163 692v51l24 23l23 -24v-50q-6 -6 -10.5 -10t-7.5 -7l-6 -6zM286 663l-23 -24h-48l-23 24l23 23h48zM192 771q23 23 24 23h48l23 -23l-24 -24
h-47z" />
    <glyph glyph-name="AE" unicode="&#xc6;" horiz-adv-x="721" 
d="M108 584l47 47h163l46 -47q-13 -12 -24.5 -24l-22.5 -23h-162zM96 331l-46 47v148l47 47l2 -3l42 -42l2 -1v-149zM50 49v213l46 47l47 -47v-212l-47 -47zM108 319l46 46h163l47 -46l-48 -47h-162zM389 582l47 47h208l47 -47l-48 -47h-207zM378 329l-47 47v148l47 47l2 -3
q42 -42 43 -42l1 -150zM377 63q-12 11 -20.5 20l-14.5 15q-7 7 -11 12v150l47 47l46 -47v-150zM691 51l-47 -47h-208l-47 48l46 46h209zM389 317l35 35q7 7 12 11h131l46 -46l-47 -47h-130z" />
    <glyph glyph-name="Ccedilla" unicode="&#xc7;" horiz-adv-x="439" 
d="M108 575q12 13 24 24.5l23 22.5h208l46 -46l-47 -47h-207zM96 323l-46 46v148l47 47l2 -2l42 -42l2 -2v-148zM50 103v150q7 8 18.5 19.5l27.5 27.5l47 -47v-149l-47 -47zM362 91q10 -9 21.5 -20.5l25.5 -25.5q-12 -13 -24 -24.5l-23 -22.5h-207l-48 47l47 46h208z
M234 -50v22l17 17l17 -17v-22l-17 -17zM234 -109v19l17 17l17 -17v-19l-17 -17zM184 -112h48l16 -17l-16 -18h-48l-17 17z" />
    <glyph glyph-name="Egrave" unicode="&#xc8;" horiz-adv-x="450" 
d="M118 576l47 47h208l47 -46l-48 -47h-207zM142 623l-82 -82v82h82zM107 324l-47 46v148l47 47l2 -2l42 -42l2 -2v-148zM60 104v150l18.5 18.5l28.5 28.5l46 -47v-149l-47 -47zM373 92l18.5 -18t27.5 -28l-46 -47h-208l-47 47l46 46h209zM60 81l53 -52.5t29 -29.5h-82v82z
M118 311l47 47h131l46 -47l-27.5 -27.5l-19.5 -19.5h-130zM232 769l41 -40v-32h-33l-39 38v34h31z" />
    <glyph glyph-name="Eacute" unicode="&#xc9;" horiz-adv-x="450" 
d="M118 576l47 47h208l47 -46l-48 -47h-207zM142 623l-82 -82v82h82zM107 324l-47 46v148l47 47l2 -2l42 -42l2 -2v-148zM60 104v150l18.5 18.5l28.5 28.5l46 -47v-149l-47 -47zM373 92l18.5 -18t27.5 -28l-46 -47h-208l-47 47l46 46h209zM60 81l53 -52.5t29 -29.5h-82v82z
M118 311l47 47h131l46 -47l-27.5 -27.5l-19.5 -19.5h-130zM273 769v-34l-39 -38h-33v32l40 40h32z" />
    <glyph glyph-name="Ecircumflex" unicode="&#xca;" horiz-adv-x="450" 
d="M118 576l47 47h208l47 -46l-48 -47h-207zM142 623l-82 -82v82h82zM107 324l-47 46v148l47 47l2 -2l42 -42l2 -2v-148zM60 104v150l18.5 18.5l28.5 28.5l46 -47v-149l-47 -47zM373 92l18.5 -18t27.5 -28l-46 -47h-208l-47 47l46 46h209zM60 81l53 -52.5t29 -29.5h-82v82z
M118 311l47 47h131l46 -47l-27.5 -27.5l-19.5 -19.5h-130zM282 667l-23 24v32l23 23l23 -23v-33zM186 746l6 -6q3 -3 7 -7.5t10 -10.5v-31l-23 -24l-23 24v32zM253 729h-38l-23 23l23 23h38l23 -23z" />
    <glyph glyph-name="Edieresis" unicode="&#xcb;" horiz-adv-x="450" 
d="M118 576l47 47h208l47 -46l-48 -47h-207zM142 623l-82 -82v82h82zM107 324l-47 46v148l47 47l2 -2l42 -42l2 -2v-148zM60 104v150l18.5 18.5l28.5 28.5l46 -47v-149l-47 -47zM373 92l18.5 -18t27.5 -28l-46 -47h-208l-47 47l46 46h209zM60 81l53 -52.5t29 -29.5h-82v82z
M118 311l47 47h131l46 -47l-27.5 -27.5l-19.5 -19.5h-130zM311 743l-23 -24h-33l-23 24l23 23h33zM193 743l-23 -24h-32q-23 21 -24 24l23 23h33v-1q1 0 23 -22z" />
    <glyph glyph-name="Igrave" unicode="&#xcc;" horiz-adv-x="194" 
d="M144 586v-209l-46 -46l-48 47v207l47 47zM97 308q46 -45 45 -45l2 -213l-47 -46l-47 46v211l2 2q45 43 45 45zM92 773l41 -40v-32h-33l-40 38v34h32z" />
    <glyph glyph-name="Iacute" unicode="&#xcd;" horiz-adv-x="194" 
d="M144 586v-209l-46 -46l-48 47v207l47 47zM97 308q46 -45 45 -45l2 -213l-47 -46l-47 46v211l2 2q45 43 45 45zM133 767v-33l-39 -39h-33v33l41 39h31z" />
    <glyph glyph-name="Icircumflex" unicode="&#xce;" horiz-adv-x="194" 
d="M144 586v-209l-46 -46l-48 47v207l47 47zM97 308q46 -45 45 -45l2 -213l-47 -46l-47 46v211l2 2q45 43 45 45zM50 679q-8 8 -13 12.5t-7 6.5q-4 3 -4 4v32l24 24l23 -24v-32zM169 734v-32l-23 -23l-24 23v32q6 5 10.5 9.5l7.5 7.5l6 6zM79 740q-23 23 -24 23l24 24h38
q5 -6 9.5 -10.5l7.5 -7.5l6 -6l-23 -23h-38z" />
    <glyph glyph-name="Idieresis" unicode="&#xcf;" horiz-adv-x="194" 
d="M144 586v-209l-46 -46l-48 47v207l47 47zM97 308q46 -45 45 -45l2 -213l-47 -46l-47 46v211l2 2q45 43 45 45zM196 753l-24 -24h-32l-23 24l23 23h33v-0.5t2 -2t7 -6.5zM78 753l-23 -24h-33l-23 23l23 24h33v-0.5t2 -2t7 -6.5z" />
    <glyph glyph-name="Eth" unicode="&#xd0;" horiz-adv-x="547" 
d="M184 578q45 45 46 47h163l47 -46l-48 -47h-162zM208 625l-83 -82v82h83zM497 521v-149l-46 -46l-47 47v148l47 46zM497 258v-152l-46 -47l-47 47v150l47 47zM172 326l-47 46v148l47 47l2 -2q42 -42 43 -42l2 -150zM125 106v150l47 47l47 -47v-149q-47 -47 -48 -47z
M439 48l-46 -47h-163l-47 47l46 46h164zM208 1h-83v82zM160 314l-48 -49h-48l-49 49l48 48h13q1 1 36 1zM332 312l-48 -49h-48l-49 49l48 48h49z" />
    <glyph glyph-name="Ntilde" unicode="&#xd1;" 
d="M109 590l47 46h163l46 -46l-29 -28.5t-18 -18.5h-163zM423 532v-148l-47 -47l-47 47v148l47 47zM421 269l2 -1v-213l-47 -47q-12 13 -24 24.5l-23 22.5v212l47 47zM97 337l-47 47v147l47 47l3 -2l42 -42l2 -150zM97 9q-12 11 -20.5 20l-14.5 15q-7 7 -12 11v213l47 46
l47 -47v-211zM221 761l-23 -24h-17q-22 22 -23 24l23 23h17v-1q1 0 23 -22zM248 733v-23l-23 -23l-23 24v21l23 24zM298 684q-1 0 -23 -22l-17 -1l-24 23l24 24h17h-0.5t1.5 -2t6.5 -7t15.5 -15zM325 735v-23l-23 -23l-24 24v22l23 23zM175 731v-23l-23 -23l-23 24v22l23 23
z" />
    <glyph glyph-name="Ograve" unicode="&#xd2;" horiz-adv-x="472" 
d="M108 575l47 47h163l46 -47l-47 -47h-162zM422 518v-149l-46 -46l-47 47v147l47 47zM421 255l1 -153l-46 -46l-28.5 28.5l-18.5 18.5v150l47 47zM96 322l-26 26t-20 21v148l47 47l2 -3l42 -42l2 -1v-149zM96 56q-12 11 -20.5 20l-14.5 15q-7 7 -11 12v150l46 47l47 -47
v-150zM364 44l-47 -47h-162l-48 48l47 46h163zM219 769l41 -40v-32h-33l-40 38v34h32z" />
    <glyph glyph-name="Oacute" unicode="&#xd3;" horiz-adv-x="472" 
d="M108 575l47 47h163l46 -47l-47 -47h-162zM422 518v-149l-46 -46l-47 47v147l47 47zM421 255l1 -153l-46 -46l-28.5 28.5l-18.5 18.5v150l47 47zM96 322l-26 26t-20 21v148l47 47l2 -3l42 -42l2 -1v-149zM96 56q-12 11 -20.5 20l-14.5 15q-7 7 -11 12v150l46 47l47 -47
v-150zM364 44l-47 -47h-162l-48 48l47 46h163zM281 767v-33l-40 -39h-33v33l41 39h32z" />
    <glyph glyph-name="Ocircumflex" unicode="&#xd4;" horiz-adv-x="472" 
d="M108 575l47 47h163l46 -47l-47 -47h-162zM422 518v-149l-46 -46l-47 47v147l47 47zM421 255l1 -153l-46 -46l-28.5 28.5l-18.5 18.5v150l47 47zM96 322l-26 26t-20 21v148l47 47l2 -3l42 -42l2 -1v-149zM96 56q-12 11 -20.5 20l-14.5 15q-7 7 -11 12v150l46 47l47 -47
v-150zM364 44l-47 -47h-162l-48 48l47 46h163zM284 666l-24 23v32q12 10 24 24l23 -24v-32v-0.5t-2 -2t-7 -6.5zM188 744l23 -23v-32l-23 -23q-12 11 -23 23v32zM255 727h-38l-24 23l24 24h38l23 -24z" />
    <glyph glyph-name="Otilde" unicode="&#xd5;" horiz-adv-x="472" 
d="M108 575l47 47h163l46 -47l-47 -47h-162zM422 518v-149l-46 -46l-47 47v147l47 47zM421 255l1 -153l-46 -46l-28.5 28.5l-18.5 18.5v150l47 47zM96 322l-26 26t-20 21v148l47 47l2 -3l42 -42l2 -1v-149zM96 56q-12 11 -20.5 20l-14.5 15q-7 7 -11 12v150l46 47l47 -47
v-150zM364 44l-47 -47h-162l-48 48l47 46h163zM223 761l-24 -24h-17q-22 22 -23 24l23 23h17q-1 0 -0.5 -0.5t2.5 -2t7.5 -6.5t14.5 -14zM250 733v-23l-23 -23l-24 24v21l23 24zM299 684l-22 -22l-18 -1l-23 23l23 24h17h-0.5t1.5 -2t6.5 -7t15.5 -15zM326 735v-23l-23 -23
l-24 24v22l24 23zM177 731v-23l-23 -23l-24 24v22l23 23z" />
    <glyph glyph-name="Odieresis" unicode="&#xd6;" horiz-adv-x="472" 
d="M108 575l47 47h163l46 -47l-47 -47h-162zM422 518v-149l-46 -46l-47 47v147l47 47zM421 255l1 -153l-46 -46l-28.5 28.5l-18.5 18.5v150l47 47zM96 322l-26 26t-20 21v148l47 47l2 -3l42 -42l2 -1v-149zM96 56q-12 11 -20.5 20l-14.5 15q-7 7 -11 12v150l46 47l47 -47
v-150zM364 44l-47 -47h-162l-48 48l47 46h163zM342 750l-24 -23h-32l-23 23l23 24h33q0 -1 4 -5zM224 750l-23 -23h-33l-23 23l23 23h33h1q-1 0 22 -23z" />
    <glyph glyph-name="multiply" unicode="&#xd7;" horiz-adv-x="405" 
d="M190 278h-69l-81 82v68h68l82 -81v-69zM351 112h-68l-81 81v69h68l81 -82v-68zM357 431v-69l-81 -81h-69v68l82 82h68zM184 260v-68l-81 -81h-69v68l82 81h68z" />
    <glyph glyph-name="Oslash" unicode="&#xd8;" horiz-adv-x="566" 
d="M369 528h-162l-47 47l46 47h163l47 -47l-45 -45zM195 517v-147l-47 -47l-46 46v159l46 36zM381 103v150l47 47l46 -47v-150l-46 -47zM370 91l47 -46l-48 -47h-115.5t-46.5 -1l-47 47l47 47h163zM474 476v-107l-46 -47l-47 47v14l-186 -186v-94l-46 -47l-47 46v2l-30 -30
l-22 22l52 53v104l46 47l47 -47v-11l186 186v89l46 47l45 -45l22 21l22 -22z" />
    <glyph glyph-name="Ugrave" unicode="&#xd9;" 
d="M423 575v-208l-4 -4l-43 -43l-47 47v208l47 47zM423 252v-152l-47 -47l-47 47v150l47 47zM97 320l-47 47v207l47 47l2 -2q42 -42 43 -42l2 -210zM97 54q-12 11 -20.5 20l-14.5 15q-7 7 -12 11v151l47 46l47 -47v-149zM318 89l31.5 -31.5l15.5 -15.5q-13 -12 -24.5 -24
l-22.5 -23h-163l-47 48l46 46h164zM218 769l41 -40v-32h-33l-40 38v34h32z" />
    <glyph glyph-name="Uacute" unicode="&#xda;" 
d="M423 575v-208l-4 -4l-43 -43l-47 47v208l47 47zM423 252v-152l-47 -47l-47 47v150l47 47zM97 320l-47 47v207l47 47l2 -2q42 -42 43 -42l2 -210zM97 54q-12 11 -20.5 20l-14.5 15q-7 7 -12 11v151l47 46l47 -47v-149zM318 89l31.5 -31.5l15.5 -15.5q-13 -12 -24.5 -24
l-22.5 -23h-163l-47 48l46 46h164zM273 764v-33l-40 -39h-33v33l41 39h32z" />
    <glyph glyph-name="Ucircumflex" unicode="&#xdb;" 
d="M423 575v-208l-4 -4l-43 -43l-47 47v208l47 47zM423 252v-152l-47 -47l-47 47v150l47 47zM97 320l-47 47v207l47 47l2 -2q42 -42 43 -42l2 -210zM97 54q-12 11 -20.5 20l-14.5 15q-7 7 -12 11v151l47 46l47 -47v-149zM318 89l31.5 -31.5l15.5 -15.5q-13 -12 -24.5 -24
l-22.5 -23h-163l-47 48l46 46h164zM288 659l-24 24v32l24 23l23 -23v-32q0 -1 -4 -5zM192 738l23 -23v-32l-23 -24l-24 24v32l6 6q3 3 7.5 7t10.5 10zM259 721h-39l-23 23l6 6q3 3 7.5 7t10.5 10h38l23 -23z" />
    <glyph glyph-name="Udieresis" unicode="&#xdc;" 
d="M423 575v-208l-4 -4l-43 -43l-47 47v208l47 47zM423 252v-152l-47 -47l-47 47v150l47 47zM97 320l-47 47v207l47 47l2 -2q42 -42 43 -42l2 -210zM97 54q-12 11 -20.5 20l-14.5 15q-7 7 -12 11v151l47 46l47 -47v-149zM318 89l31.5 -31.5l15.5 -15.5q-13 -12 -24.5 -24
l-22.5 -23h-163l-47 48l46 46h164zM341 750l-24 -23h-32l-24 23l24 24h32q0 -1 4.5 -5.5t19.5 -18.5zM223 750l-24 -23h-32l-23 23l23 23h33z" />
    <glyph glyph-name="Yacute" unicode="&#xdd;" horiz-adv-x="433" 
d="M403 578v-148l-47 -47l-47 47v148l47 47zM215 358q45 -44 45 -45l1 -266l-47 -46l-46 46v264zM77 383l-47 47v147l48 47l2 -2l42 -42l2 -1v-149zM224 372l27.5 27.5t18.5 19.5h26l46 -47l-47 -47h-25zM88 372l27.5 27.5l19.5 19.5h26l46 -47l-33.5 -33.5l-13.5 -13.5h-25
zM267 778v-33l-39 -39h-33v33l40 39h32z" />
    <glyph glyph-name="Thorn" unicode="&#xde;" horiz-adv-x="441" 
d="M94 426l46 47h162l47 -47l-47 -47h-162zM406 369v-110l-46 -46l-47 47v108l47 47zM82 213l-47 46v109l34.5 34.5l12.5 12.5l2 -3l42 -42l2 -1v-110zM82 0q-12 11 -20.5 20l-14.5 15q-7 7 -12 11v98l47 46l46 -47v-96l-35 -35q-7 -7 -11 -12zM93 200l47 47h162l46 -46
l-47 -47h-161zM36 483v97l47 47l46 -47v-96l-47 -47z" />
    <glyph glyph-name="germandbls" unicode="&#xdf;" horiz-adv-x="450" 
d="M98 579l46 47h163l46 -46l-47 -47h-162zM410 522v-148l-45 -46l-48 47v147l47 46zM410 260v-173l-46 -46l-47 46v171l3 3l45 44zM86 328l-46 46v147l46 47l3 -2q40 -42 42 -42l2 -1v-149zM40 48v211l46 46l47 -47v-210l-35 -35q-7 -7 -12 -11zM356 26l-47 -46h-81l-47 47
l46 46h82zM97 315l47 47h162l47 -47l-48 -47h-161z" />
    <glyph glyph-name="agrave" unicode="&#xe0;" horiz-adv-x="417" 
d="M93 393l48 48h136l48 -48l-49 -49h-135zM382 -3h-87l87 87v-87zM334 384l48 -48v-64l-48 -48l-48 49v63zM334 206l48 -48v-55l-48 -48l-48 48v55zM83 55l-48 48v55l48 48l49 -48v-54zM325 45l-48 -48h-136l-49 49l48 48h137zM92 215l49 48h136l48 -47l-49 -49h-135z
M201 573l41 -39v-32h-33l-39 38v33h31z" />
    <glyph glyph-name="aacute" unicode="&#xe1;" horiz-adv-x="417" 
d="M93 393l48 48h136l48 -48l-49 -49h-135zM382 -3h-87l87 87v-87zM334 384l48 -48v-64l-48 -48l-48 49v63zM334 206l48 -48v-55l-48 -48l-48 48v55zM83 55l-48 48v55l48 48l49 -48v-54zM325 45l-48 -48h-136l-49 49l48 48h137zM92 215l49 48h136l48 -47l-49 -49h-135z
M261 573v-33l-39 -38h-33v32l41 39h31z" />
    <glyph glyph-name="acircumflex" unicode="&#xe2;" horiz-adv-x="417" 
d="M93 393l48 48h136l48 -48l-49 -49h-135zM382 -3h-87l87 87v-87zM334 384l48 -48v-64l-48 -48l-48 49v63zM334 206l48 -48v-55l-48 -48l-48 48v55zM83 55l-48 48v55l48 48l49 -48v-54zM325 45l-48 -48h-136l-49 49l48 48h137zM92 215l49 48h136l48 -47l-49 -49h-135z
M260 513l-24 24v32l23 23l24 -23v-33h-1q0 -1 -22 -23zM163 592l24 -24v-31l-24 -24l-23 24v32zM230 574h-38l-23 23l24 24h37l24 -23z" />
    <glyph glyph-name="atilde" unicode="&#xe3;" horiz-adv-x="417" 
d="M93 393l48 48h136l48 -48l-49 -49h-135zM382 -3h-87l87 87v-87zM334 384l48 -48v-64l-48 -48l-48 49v63zM334 206l48 -48v-55l-48 -48l-48 48v55zM83 55l-48 48v55l48 48l49 -48v-54zM325 45l-48 -48h-136l-49 49l48 48h137zM92 215l49 48h136l48 -47l-49 -49h-135z
M206 590l-24 -24h-16q-23 21 -24 24l23 23h17q-1 0 4 -4t20 -19zM233 562v-23l-23 -23l-24 24v22l24 23zM282 513l-22 -22l-18 -1l-23 23l23 24h17v-1zM309 564v-23l-23 -23l-24 24v22l24 23zM160 560v-23l-23 -23l-24 24v22l24 23z" />
    <glyph glyph-name="adieresis" unicode="&#xe4;" horiz-adv-x="417" 
d="M93 393l48 48h136l48 -48l-49 -49h-135zM382 -3h-87l87 87v-87zM334 384l48 -48v-64l-48 -48l-48 49v63zM334 206l48 -48v-55l-48 -48l-48 48v55zM83 55l-48 48v55l48 48l49 -48v-54zM325 45l-48 -48h-136l-49 49l48 48h137zM92 215l49 48h136l48 -47l-49 -49h-135z
M305 553l-23 -24h-33l-23 24l23 23h33v-0.5t2 -2t7 -6.5zM187 553l-23 -24h-32l-24 23l23 24h33v-1q1 0 23 -22z" />
    <glyph glyph-name="aring" unicode="&#xe5;" horiz-adv-x="417" 
d="M93 393l48 48h136l48 -48l-49 -49h-135zM382 -3h-87l87 87v-87zM334 384l48 -48v-64l-48 -48l-48 49v63zM334 206l48 -48v-55l-48 -48l-48 48v55zM83 55l-48 48v55l48 48l49 -48v-54zM325 45l-48 -48h-136l-49 49l48 48h137zM92 215l49 48h136l48 -47l-49 -49h-135z
M269 605l14 -14t6.5 -7t2 -2h0.5v-25.5t-1 -25.5l-23 -24l-23 24v50zM139 531v25v14.5t1 11.5l23 23l23 -24v-50q-6 -6 -10.5 -10t-7.5 -7l-6 -6zM262 502l-23 -24h-47l-24 24l23 23h48zM169 610l23 23h48l23 -23l-24 -24h-47z" />
    <glyph glyph-name="ae" unicode="&#xe6;" horiz-adv-x="670" 
d="M93 396l49 49h136l48 -48l-49 -49h-135zM83 58l-48 48v55l49 48l48 -48v-55zM326 48l-49 -48h-135l-49 49l47 47h138zM93 218l48 49h136l48 -48l-49 -49h-135zM345 396l48 49h137l47 -48l-48 -49h-136zM587 388l48 -48v-64l-48 -48l-49 48v63zM335 227l-48 49v63l49 48
l48 -48v-63zM335 58l-48 48v55l48 48l49 -48v-55zM577 48l-48 -48h-136l-49 49l48 47h137zM344 218l49 49h136l48 -48l-49 -49h-136z" />
    <glyph glyph-name="ccedilla" unicode="&#xe7;" horiz-adv-x="345" 
d="M93 393l48 48h136l48 -48l-49 -49h-135zM83 224l-48 48v63l49 49l48 -48v-64zM83 55l-48 48v55l48 48l49 -48v-54zM325 45l-49 -48h-135l-49 49l48 48h137zM202 -53v22l17 17l17 -17v-22l-17 -17zM202 -112v19l17 17l17 -17v-19l-17 -17zM152 -115h48l16 -17l-16 -18h-48
l-17 17z" />
    <glyph glyph-name="egrave" unicode="&#xe8;" horiz-adv-x="416" 
d="M92 393l49 48h136l47 -48l-48 -49h-136zM333 384l48 -48v-64l-48 -48l-48 49v63zM83 224l-48 48v63l48 49l48 -48v-64zM82 55l-47 48v55l48 48l48 -48v-54zM324 45l-48 -48h-135l-49 49l47 48h137zM92 215l48 49h136l48 -48l-49 -49h-135zM196 591l41 -39v-33h-33l-40 39
v33h32z" />
    <glyph glyph-name="eacute" unicode="&#xe9;" horiz-adv-x="416" 
d="M92 393l49 48h136l47 -48l-48 -49h-136zM333 384l48 -48v-64l-48 -48l-48 49v63zM83 224l-48 48v63l48 49l48 -48v-64zM82 55l-47 48v55l48 48l48 -48v-54zM324 45l-48 -48h-135l-49 49l47 48h137zM92 215l48 49h136l48 -48l-49 -49h-135zM256 585v-33l-39 -39h-33v33
l40 39h32z" />
    <glyph glyph-name="ecircumflex" unicode="&#xea;" horiz-adv-x="416" 
d="M92 393l49 48h136l47 -48l-48 -49h-136zM333 384l48 -48v-64l-48 -48l-48 49v63zM83 224l-48 48v63l48 49l48 -48v-64zM82 55l-47 48v55l48 48l48 -48v-54zM324 45l-48 -48h-135l-49 49l47 48h137zM92 215l48 49h136l48 -48l-49 -49h-135zM260 530l-23 24v32l23 23
l23 -23v-32v-1zM164 609l23 -23v-32l-16.5 -16.5l-6.5 -6.5q-12 11 -23 23v32zM231 592h-38l-24 23l24 24h38l23 -24z" />
    <glyph glyph-name="edieresis" unicode="&#xeb;" horiz-adv-x="416" 
d="M92 393l49 48h136l47 -48l-48 -49h-136zM333 384l48 -48v-64l-48 -48l-48 49v63zM83 224l-48 48v63l48 49l48 -48v-64zM82 55l-47 48v55l48 48l48 -48v-54zM324 45l-48 -48h-135l-49 49l47 48h137zM92 215l48 49h136l48 -48l-49 -49h-135zM310 574l-24 -23h-32
q-22 22 -24 23l24 23h32h1zM192 574l-24 -24h-32l-23 24l23 23h33v-0.5t2 -2t7 -6.5z" />
    <glyph glyph-name="igrave" unicode="&#xec;" horiz-adv-x="219" 
d="M115 225l48 -48v-131l-48 -47l-49 48v129zM114 232l-47 48v113l48 48l48 -48v-112zM105 623l41 -40v-32h-33l-40 38v34h32z" />
    <glyph glyph-name="iacute" unicode="&#xed;" horiz-adv-x="219" 
d="M115 225l48 -48v-131l-48 -47l-49 48v129zM114 232l-47 48v113l48 48l48 -48v-112zM146 636v-33l-39 -39h-33v33l41 39h31z" />
    <glyph glyph-name="icircumflex" unicode="&#xee;" horiz-adv-x="219" 
d="M115 225l48 -48v-131l-48 -47l-49 48v129zM114 232l-47 48v113l48 48l48 -48v-112zM62 537q-8 8 -13 12.5t-7 6.5q-4 3 -4 4v32l24 24l23 -24v-32zM181 592v-32l-23 -23l-24 23v32q6 5 10.5 9.5l7.5 7.5l6 6zM91 598q-23 23 -24 23l24 24h38q5 -6 9.5 -10.5l7.5 -7.5
l6 -6l-23 -23h-38z" />
    <glyph glyph-name="idieresis" unicode="&#xef;" horiz-adv-x="219" 
d="M115 225l48 -48v-131l-48 -47l-49 48v129zM114 232l-47 48v113l48 48l48 -48v-112zM208 607l-24 -24h-32l-23 24l23 23h33v-0.5t2 -2t7 -6.5zM90 607l-23 -24h-33l-23 23l23 24h33v-0.5t2 -2t7 -6.5z" />
    <glyph glyph-name="eth" unicode="&#xf0;" horiz-adv-x="455" 
d="M296 529h-161l-23 22.5t-24 24.5l46 46h162l47 -47zM76 343l47 -47v-191l-47 -47l-46 46l1 194zM308 412v106l2 1q0 1 42 42l2 3l47 -47v-105q-6 -7 -18 -18.5l-29 -28.5zM355 58l-47 47v191l46 46q7 -6 18.5 -17.5l28.5 -28.5v-191q-4 -5 -11 -12zM134 93h163l46 -46
l-47 -47h-162l-46 46zM296 306h-161l-47 47l46 46h162l47 -47zM291 514v-66l-39 -38h-66v65l39 39h66zM464 685v-66l-39 -38h-66v65l39 39h66z" />
    <glyph glyph-name="ntilde" unicode="&#xf1;" horiz-adv-x="417" 
d="M94 397l48 48h135l48 -48l-48 -48h-135zM334 388l48 -48v-85l-48 -48l-48 48v85zM334 189l48 -48v-90l-48 -48l-48 48v90zM85 207l-48 48v84l48 49l48 -48v-85zM84 3l-47 48v90l48 48l48 -48v-89zM35 444h87l-87 -87v87zM203 595q0 -1 -22 -22l-18 -1l-23 23l23 23h17v0
l2 -2l7 -7zM231 567v-22l-23 -24l-24 24v22l23 23q3 -2 24 -23zM280 519l-24 -24h-16q-21 22 -24 24l24 23h17zM307 569v-22l-23 -23l-24 23v22l24 24zM157 565v-22l-23 -23l-9.5 9.5l-13.5 13.5v22l23 24z" />
    <glyph glyph-name="ograve" unicode="&#xf2;" horiz-adv-x="415" 
d="M92 397l48 48h136l47 -48l-48 -48h-135zM332 388l48 -48v-63l-48 -48l-48 48v63zM332 211l48 -48v-55l-48 -48l-48 48v55zM83 229l-48 48v62l48 49l48 -48v-63zM83 61l-48 47v55l48 48l48 -48v-54zM323 51l-48 -48h-135l-48 49l47 47h136zM187 612l40 -39v-33h-33l-39 39
v33h32z" />
    <glyph glyph-name="oacute" unicode="&#xf3;" horiz-adv-x="415" 
d="M92 397l48 48h136l47 -48l-48 -48h-135zM332 388l48 -48v-63l-48 -48l-48 48v63zM332 211l48 -48v-55l-48 -48l-48 48v55zM83 229l-48 48v62l48 49l48 -48v-63zM83 61l-48 47v55l48 48l48 -48v-54zM323 51l-48 -48h-135l-48 49l47 47h136zM255 597v-33l-39 -39h-33v33
l40 39h32z" />
    <glyph glyph-name="ocircumflex" unicode="&#xf4;" horiz-adv-x="415" 
d="M92 397l48 48h136l47 -48l-48 -48h-135zM332 388l48 -48v-63l-48 -48l-48 48v63zM332 211l48 -48v-55l-48 -48l-48 48v55zM83 229l-48 48v62l48 49l48 -48v-63zM83 61l-48 47v55l48 48l48 -48v-54zM323 51l-48 -48h-135l-48 49l47 47h136zM259 528l-23 24v32l23 23
l23 -23v-32q0 -1 -4 -5zM163 607l6 -6q3 -3 7 -7.5t10 -10.5v-31l-23 -24l-23 24v32zM230 590h-38l-24 23l6 6q3 3 7.5 7t10.5 10h38l23 -23z" />
    <glyph glyph-name="otilde" unicode="&#xf5;" horiz-adv-x="415" 
d="M92 397l48 48h136l47 -48l-48 -48h-135zM332 388l48 -48v-63l-48 -48l-48 48v63zM332 211l48 -48v-55l-48 -48l-48 48v55zM83 229l-48 48v62l48 49l48 -48v-63zM83 61l-48 47v55l48 48l48 -48v-54zM323 51l-48 -48h-135l-48 49l47 47h136zM202 588q0 -1 -22 -23l-18 -1
q-22 22 -23 24l23 23h17v-1q1 0 23 -22zM230 560v-23l-23 -23l-24 24v22l23 23zM279 511q-1 0 -23 -22l-17 -1q-22 22 -24 23l24 24h17h-0.5t1.5 -2t6.5 -7t15.5 -15zM306 562v-23l-23 -23l-24 24v22l24 23zM157 558v-23l-23 -23l-24 24v22l23 23z" />
    <glyph glyph-name="odieresis" unicode="&#xf6;" horiz-adv-x="415" 
d="M92 397l48 48h136l47 -48l-48 -48h-135zM332 388l48 -48v-63l-48 -48l-48 48v63zM332 211l48 -48v-55l-48 -48l-48 48v55zM83 229l-48 48v62l48 49l48 -48v-63zM83 61l-48 47v55l48 48l48 -48v-54zM323 51l-48 -48h-135l-48 49l47 47h136zM311 572l-23 -24h-32l-24 24
l23 23h33h1q0 -1 22 -23zM194 572l-24 -24h-32l-24 24l24 23h32q0 -1 4 -4q2 -2 7 -6.5t13 -12.5z" />
    <glyph glyph-name="divide" unicode="&#xf7;" horiz-adv-x="400" 
d="M357 189l-49 -49h-239l-49 49l49 48h239zM269 330l-47 -47h-64l-47 47l47 46l66 -1zM266 49l-47 -47h-64l-47 47l47 46l66 -1z" />
    <glyph glyph-name="oslash" unicode="&#xf8;" horiz-adv-x="460" 
d="M168 349l-48 48l48 48h136l47 -48l-48 -48h-135zM312 340l48 48l48 -48v-63l-48 -48l-48 48v63zM159 311l153 -154v6l48 48l48 -48v-55l-23 -23l40 -41l-22 -23l-41 41l-2 -2l-48 48v4l-158 160l-43 -43l-48 48v62l12 12l-40 40l22 23l40 -40l14 14l48 -48v-29zM159 109
l-48 -48l-48 47v55l48 48l48 -48v-54zM303 99l48 -48l-48 -48h-135l-48 49l47 47h136z" />
    <glyph glyph-name="ugrave" unicode="&#xf9;" horiz-adv-x="419" 
d="M324 44l-48 -49h-136l-48 48l49 49h135zM83 52l-48 48v87l48 48l48 -49v-85zM83 253l-48 48v92l48 48l48 -49v-90zM334 235l48 -48v-85l-48 -49l-49 48v86zM334 440l48 -48v-90l-48 -48l-49 48v90zM384 -4h-88l88 88v-88zM195 610l40 -40v-32h-33l-39 38v34h32z" />
    <glyph glyph-name="uacute" unicode="&#xfa;" horiz-adv-x="419" 
d="M324 44l-48 -49h-136l-48 48l49 49h135zM83 52l-48 48v87l48 48l48 -49v-85zM83 253l-48 48v92l48 48l48 -49v-90zM334 235l48 -48v-85l-48 -49l-49 48v86zM334 440l48 -48v-90l-48 -48l-49 48v90zM384 -4h-88l88 88v-88zM249 575v-33l-40 -39h-33v33l41 39h32z" />
    <glyph glyph-name="ucircumflex" unicode="&#xfb;" horiz-adv-x="419" 
d="M324 44l-48 -49h-136l-48 48l49 49h135zM83 52l-48 48v87l48 48l48 -49v-85zM83 253l-48 48v92l48 48l48 -49v-90zM334 235l48 -48v-85l-48 -49l-49 48v86zM334 440l48 -48v-90l-48 -48l-49 48v90zM384 -4h-88l88 88v-88zM253 529l-24 23v32q10 12 24 24l23 -23v-33v-0.5
t-2 -2t-7 -6.5zM156 608l24 -24v-32l-16.5 -16.5l-6.5 -6.5l-24 23v32l6 6q3 3 7 7.5t10 10.5zM224 590h-39l-23 23l24 24h38l23 -23z" />
    <glyph glyph-name="udieresis" unicode="&#xfc;" horiz-adv-x="419" 
d="M324 44l-48 -49h-136l-48 48l49 49h135zM83 52l-48 48v87l48 48l48 -49v-85zM83 253l-48 48v92l48 48l48 -49v-90zM334 235l48 -48v-85l-48 -49l-49 48v86zM334 440l48 -48v-90l-48 -48l-49 48v90zM384 -4h-88l88 88v-88zM304 531l-23 -23h-33l-23 23l23 23h33h1
q-1 0 22 -23zM186 531l-23 -24h-32q-23 21 -24 24l24 23h32v-1q1 0 23 -22z" />
    <glyph glyph-name="yacute" unicode="&#xfd;" horiz-adv-x="419" 
d="M324 50l-48 -49h-136l-48 48l49 49h135zM83 58l-48 48v82l48 48l48 -49v-80zM83 254l-48 48v96l48 49l48 -49v-95zM334 236l48 -48v-81l-48 -48l-48 48v80zM334 446l48 -48v-96l-48 -48l-48 49v95zM336 43l48 -48v-64l-48 -48l-49 49v62zM330 -127l-49 -49h-136l-49 49
l48 48h137zM254 591v-33l-39 -39h-33v33l40 39h32z" />
    <glyph glyph-name="thorn" unicode="&#xfe;" horiz-adv-x="420" 
d="M96 396l49 48h135l48 -48l-48 -48h-135zM337 387l48 -48v-64l-48 -47l-48 48v63zM337 209l48 -47v-56l-48 -48l-48 48v55zM87 227l-48 48v63l48 49l48 -48v-63zM87 59l-48 47v55l48 48l48 -48v-54zM328 49l-48 -48h-135l-49 49l47 47h137zM86 403l-48 48v125l49 48
l48 -48v-125zM83 -179l-48 48v125l49 48l47 -48v-125z" />
    <glyph glyph-name="ydieresis" unicode="&#xff;" horiz-adv-x="419" 
d="M324 50l-48 -49h-136l-48 48l49 49h135zM83 58l-48 48v82l48 48l48 -49v-80zM83 254l-48 48v96l48 49l48 -49v-95zM334 236l48 -48v-81l-48 -48l-48 48v80zM334 446l48 -48v-96l-48 -48l-48 49v95zM336 43l48 -48v-64l-48 -48l-49 49v62zM330 -127l-49 -49h-136l-49 49
l48 48h137zM308 553l-23 -23h-32l-24 23l23 23h33v0l2 -2l7 -7zM191 553l-24 -24h-32q-22 22 -23 24l23 23h33v-0.5t2 -2t7 -6.5z" />
    <glyph glyph-name="dotlessi" unicode="&#x131;" horiz-adv-x="219" 
d="M115 225l48 -48v-131l-48 -47l-49 48v129zM114 232l-47 48v113l48 48l48 -48v-112z" />
    <glyph glyph-name="Lslash" unicode="&#x141;" horiz-adv-x="387" 
d="M101 328l-47 46v210l47 47l2 -2q42 -42 43 -42l2 -2v-211zM54 108v150l47 47l47 -47v-150l-47 -47zM369 49l-47 -46h-163l-47 47l46 46h164zM137 3h-83v82zM263 316l-48 -49h-55l-49 49l48 49h56zM91 316l-48 -48l-13 -1l-49 49l48 48l14 1z" />
    <glyph glyph-name="lslash" unicode="&#x142;" horiz-adv-x="185" 
d="M90 331l47 -48v-233l-47 -48l-48 48v233zM90 338l-48 48v189l48 48l48 -48v-188zM72 334l-48 -48l-13 -1l-49 49l48 48l14 1zM216 333l-48 -48l-13 -1l-49 49l48 48l14 1z" />
    <glyph glyph-name="OE" unicode="&#x152;" horiz-adv-x="712" 
d="M87 582l35 35q7 7 12 11h163l46 -46l-47 -47h-162zM75 329l-47 47v147l48 47l2 -2l42 -42l2 -150zM75 63q-46 46 -47 46v150l47 47l47 -47v-149zM343 51l-47 -47h-162l-48 47l46 46h164zM368 582l47 46h208l47 -46l-48 -47h-207zM357 329q-13 12 -24.5 24l-22.5 23v147
l47 47l2 -2l42 -42l2 -1v-149zM310 109v150l47 47l46 -47v-149l-47 -47zM670 51l-47 -47h-208l-47 47l46 46h209zM368 316l47 47h131l46 -46l-47 -48h-130z" />
    <glyph glyph-name="oe" unicode="&#x153;" horiz-adv-x="672" 
d="M86 396l48 49h137l48 -48l-49 -49h-136zM76 227l-48 49v63l49 48l48 -48v-63zM76 58l-48 48v55l48 48l49 -48v-55zM318 48l-48 -48h-136l-49 49l48 47h137zM337 396l49 49h136l48 -48l-49 -49h-135zM579 388l48 -48v-64l-48 -48l-48 48v63zM328 227l-48 49v63l48 48
l48 -48v-63zM328 58l-48 48v55l48 48l48 -48v-55zM570 48l-48 -48h-136l-49 49l48 47h137zM337 218l48 49h137l48 -48l-49 -49h-136z" />
    <glyph glyph-name="Scaron" unicode="&#x160;" horiz-adv-x="432" 
d="M88 575l47 47h202l46 -47l-24 -24l-23 -23h-201zM401 255l1 -153l-46 -46l-28.5 28.5l-18.5 18.5v150l47 47zM77 322l-47 47v148l47 47l2 -3l42 -42l2 -1v-149zM344 44l-46 -47h-204l-47 48l46 46h205zM88 310l35 35q7 7 12 11h163l46 -46l-47 -47h-162zM161 777l23 -23
v-32l-23 -24l-23 23v33zM257 698q0 1 -23 24v32l23 23l23 -23v-32q0 -1 -23 -24zM190 716h38l23 -23l-6 -6l-7.5 -7.5t-9.5 -10.5h-38l-23 23z" />
    <glyph glyph-name="scaron" unicode="&#x161;" horiz-adv-x="395" 
d="M289 349h-158l-49 48l48 48h158l48 -48zM121 340v-63l-48 -48l-48 48v63l48 48zM274 109v54l48 48l48 -48v-55l-47 -47zM97 99h169l48 -47l-49 -49h-168l-48 48zM266 172h-135l-48 48l47 48h136l48 -48zM143 610l24 -23v-32q-12 -11 -24 -24l-23 24v32v0l2 2l7 7z
M239 532l-23 23v32l23 23l24 -23v-32q-1 0 -24 -23zM172 549h39l23 -23l-24 -24h-38l-23 24z" />
    <glyph glyph-name="Ydieresis" unicode="&#x178;" horiz-adv-x="444" 
d="M409 578v-148l-47 -47l-47 47v148l47 47zM221 358q45 -44 45 -45l1 -266l-47 -46l-46 46v264zM83 383l-47 47v147l48 47l2 -2l42 -42l2 -1v-149zM230 372l27.5 27.5t18.5 19.5h26l46 -47l-47 -47h-25zM94 372l27.5 27.5l19.5 19.5h26l46 -47l-33.5 -33.5l-13.5 -13.5h-25
zM328 736l-24 -23h-32l-23 23l23 24h33q0 -1 4 -5zM210 736l-23 -24h-33l-23 24l23 23h33v-1q1 0 23 -22z" />
    <glyph glyph-name="Zcaron" unicode="&#x17d;" horiz-adv-x="471" 
d="M239 534h-162l-47 47l46 46h163l46 -47zM187 232l47 -47v-80l-47 -47l-47 46q0 20 0.5 41t1.5 42zM250 452v72l47 45l47 -47v-71l-47 -46zM245 93h149l47 -46l-48 -48h-148l-47 47zM201 242v147l46 44l48 -47v-144l-47 -47z" />
    <glyph glyph-name="zcaron" unicode="&#x17e;" horiz-adv-x="384" 
d="M10 390l48 49h105l48 -48l-49 -49h-104zM220 382l48 -49v-89l-48 -48l-49 48v89zM374 48l-49 -49h-105l-47 48l47 49h106zM163 56l-48 48v77l48 48l49 -48v-76z" />
    <glyph glyph-name="florin" unicode="&#x192;" horiz-adv-x="438" 
d="M211 584l48 49h98l47 -48l-48 -49h-97zM202 416l-48 48v63l48 48l48 -47v-64zM201 147l-47 48v155l48 48l48 -48v-155zM391 407l-48 -48h-84l-49 48l48 48h85zM189 -128l-48 -48h-80l-48 47l49 49h79zM199 126l48 -48v-149l-49 -48l-47 48v149zM22 410l49 48h70l49 -49
l-48 -47h-71z" />
    <glyph glyph-name="circumflex" unicode="&#x2c6;" horiz-adv-x="213" 
d="M60 537q-8 8 -13 12.5t-7 6.5q-4 3 -4 4v32l24 24l23 -24v-32zM179 592v-32l-23 -23l-24 23v32q6 5 10.5 9.5l7.5 7.5l6 6zM89 598q-23 23 -24 23l24 24h38q5 -6 9.5 -10.5l7.5 -7.5l6 -6l-23 -23h-38z" />
    <glyph glyph-name="caron" unicode="&#x2c7;" horiz-adv-x="208" 
d="M56 676l23 -23v-32l-23 -24l-23 23v33zM152 597q0 1 -23 24v32l23 23l23 -23v-32q0 -1 -23 -24zM85 615h38l23 -23l-23 -24h-38l-23 23z" />
    <glyph glyph-name="breve" unicode="&#x2d8;" horiz-adv-x="268" 
d="M56 676l23 -23v-32l-23 -24l-23 23v33zM212 597q0 1 -23 24v32l23 23l23 -23v-32q0 -1 -23 -24zM85 615h98l23 -23l-23 -24h-98l-23 23z" />
    <glyph glyph-name="dotaccent" unicode="&#x2d9;" horiz-adv-x="157" 
d="M117 607l-23 -24h-33l-23 23l23 24h33v-0.5t2 -2t7 -6.5z" />
    <glyph glyph-name="ring" unicode="&#x2da;" horiz-adv-x="225" 
d="M166 617l14 -14t6.5 -7t2 -2h0.5v-25.5t-1 -25.5l-23 -24q-12 13 -24 24l1 51zM36 543v51l24 23l23 -23v-51q-6 -6 -10.5 -10t-7.5 -7l-6 -6zM159 514l-23 -24h-47l-24 24l23 23h48zM66 622l23 23h48l23 -23l-24 -23h-47z" />
    <glyph glyph-name="ogonek" unicode="&#x2db;" horiz-adv-x="268" 
d="M73 -74l23 -23v-32l-23 -24l-23 23v33zM157 -61q0 1 -23 24v15l23 23l23 -23v-15q0 -1 -23 -24zM102 -43h26l23 -23l-23 -24h-26l-23 23zM100 -136h26l23 -23l-23 -24h-26l-23 23z" />
    <glyph glyph-name="tilde" unicode="&#x2dc;" horiz-adv-x="261" 
d="M124 611l-24 -24h-16q-23 21 -24 24l24 23h17q-1 0 -1 -0.5t2.5 -2t7.5 -6.5zM151 583v-23l-23 -23l-24 24v22l24 23zM200 535q0 -1 -22 -23l-18 -1l-23 23l23 24h17v-1q1 0 23 -22zM227 585v-23l-23 -23l-23 24v22l23 23zM78 581v-23l-23 -23l-24 24v22l24 23z" />
    <glyph glyph-name="hungarumlaut" unicode="&#x2dd;" horiz-adv-x="281" 
d="M121 636v-33l-39 -39h-33v33l41 39h31zM219 636v-33l-39 -39h-33v33l41 39h31z" />
    <glyph glyph-name="Delta" unicode="&#x394;" horiz-adv-x="391" 
d="M40 482h303v-303h-303v303z" />
    <glyph glyph-name="Omega" unicode="&#x3a9;" horiz-adv-x="391" 
d="M40 482h303v-303h-303v303z" />
    <glyph glyph-name="pi" unicode="&#x3c0;" horiz-adv-x="391" 
d="M40 482h303v-303h-303v303z" />
    <glyph glyph-name="endash" unicode="&#x2013;" horiz-adv-x="438" 
d="M411 309l-48 -49h-279l-49 49l48 48h128q59 0 97 1t55 0z" />
    <glyph glyph-name="emdash" unicode="&#x2014;" horiz-adv-x="527" 
d="M500 309l-48 -49h-368l-49 49l48 48h173q81 0 130 1t66 0z" />
    <glyph glyph-name="quoteleft" unicode="&#x2018;" horiz-adv-x="285" 
d="M83 456l47 47h64q1 0 47 -46l-46 -47l-67 1q1 2 -11 12t-34 33zM29 512v77l46 46l47 -47v-75l-22.5 -23t-24.5 -24z" />
    <glyph glyph-name="quoteright" unicode="&#x2019;" horiz-adv-x="278" 
d="M187 592l-47 -46h-65l-46 46l46 47h65l2 -2q-2 -1 10 -11.5t35 -33.5zM241 536v-76l-46 -46l-47 47v75l46 47z" />
    <glyph glyph-name="quotesinglbase" unicode="&#x201a;" horiz-adv-x="225" 
d="M187 46l-47 -47h-65q0 1 -46 47l46 46l67 -1q-2 -1 10 -11.5t35 -33.5zM241 -10v-76l-46 -46l-47 47v75l46 47z" />
    <glyph glyph-name="quotedblleft" unicode="&#x201c;" horiz-adv-x="487" 
d="M291 448l47 47h64l47 -47l-46 -46l-67 1q-5 5 -12 11q-6 5 -14 13.5zM237 504v77l46 46l12 -12l14.5 -15l20.5 -21v-75l-47 -46zM82 452l47 47h64l47 -47l-46 -47h-66l-1 2q-5 5 -12 11q-14 12 -33 34zM28 508v76l46 46l47 -47v-75l-47 -47z" />
    <glyph glyph-name="quotedblright" unicode="&#x201d;" horiz-adv-x="488" 
d="M187 593l-47 -47h-65q-4 5 -11 12l-15 14.5t-20 20.5l46 46l67 -1q-2 -1 10 -11.5t35 -33.5zM241 537v-77l-46 -46l-12 12l-15 15l-20 21v75l46 46zM396 589l-47 -47h-64l-47 47l46 47h65l2 -2zM450 533v-76l-46 -46l-47 47v75l47 47z" />
    <glyph glyph-name="quotedblbase" unicode="&#x201e;" horiz-adv-x="418" 
d="M184 50l-47 -47h-64l-47 47l47 46l66 -1zM238 -6v-77l-45 -46l-48 48v75l47 46zM393 46l-47 -47h-64l-47 47l47 46l66 -1zM448 -10v-76l-46 -46l-12 12l-15 14.5l-21 20.5v75l23 22.5t24 24.5z" />
    <glyph glyph-name="dagger" unicode="&#x2020;" horiz-adv-x="493" 
d="M230 422l-48 48v115l49 48l47 -48v-115zM227 245l-48 48v60l48 49l48 -48v-60zM456 411l-48 -48h-115l-48 48l47 48h115zM214 413l-48 -48h-115l-48 48l47 48h116zM230 61l-48 49v67l49 49l47 -48v-68zM227 -170l-48 48v115l48 48l48 -47v-116z" />
    <glyph glyph-name="daggerdbl" unicode="&#x2021;" horiz-adv-x="507" 
d="M240 422l-48 48v115l49 48l48 -48v-115zM237 245l-48 48v60l49 49l47 -48v-60zM466 411l-48 -48h-115l-48 48l48 48h115zM224 413l-48 -48h-115l-48 48l48 48h115zM240 61l-48 49v67l49 49l48 -48v-68zM237 -170l-48 48v115l49 48l47 -47v-116zM466 51l-48 -49h-115
l-48 49l48 48h115zM224 53l-48 -48h-115l-48 48l48 48h115z" />
    <glyph glyph-name="bullet" unicode="&#x2022;" horiz-adv-x="391" 
d="M40 482h303v-303h-303v303z" />
    <glyph glyph-name="ellipsis" unicode="&#x2026;" horiz-adv-x="767" 
d="M238 46l-47 -47h-64l-47 47l46 47h66l1 -2zM504 46l-46 -47h-65l-47 47l47 47h65l1 -2zM752 46l-46 -47h-65q0 1 -46 47l46 47h65l2 -2q-1 0 44 -45z" />
    <glyph glyph-name="perthousand" unicode="&#x2030;" horiz-adv-x="883" 
d="M315 445v142l2 2l42 42l3 2l12.5 -12.5l34.5 -34.5v-141l-47 -47zM266 235v147l46 45l47 -48v-144q-4 -5 -11 -12l-35 -35zM211 31v142l46 46l47 -47v-141l-46 -46zM35 604l24 23h81l23 -23q-3 -4 -23 -24h-81zM192 575v-74l-23 -24l-23 24v74l23 23zM192 443v-76
l-23 -23l-23 23v75l23 24zM30 477l-24 24v73l24 24l1 -1l21 -21l1 -1v-74zM6 367v75q19 21 24 24l23 -24v-74q-23 -24 -24 -24zM163 338l-23 -23h-81q-6 5 -10.5 9.5l-7.5 7.5l-6 6l23 23h82zM469 291l24 23h81l23 -23q-3 -4 -23 -24h-81zM626 262v-74l-23 -23l-24 23v74
l24 23zM603 153l23 -23v-76l-23 -23l-24 24v75zM463 164q-1 2 -23 24v74l23 23l2 -1l21 -21l1 -1v-74zM463 31q-6 6 -10 10.5t-7 7.5l-6 6v75l23 23l24 -23v-75q-24 -23 -24 -24zM574 49q20 -20 23 -24l-23 -23h-81l-24 24l23 23h82zM684 286l6.5 6.5l16.5 16.5h82l23 -23
l-24 -24h-81zM841 257v-74l-23 -24l-24 24v74l24 23zM818 148l14 -14t6.5 -7t2 -2h0.5v-76l-24 -23l-23 23v75zM678 159l-23 24v73l23 24l1 -1l21 -21l1 -75zM655 49v75l23 24l23 -24v-74q-6 -6 -10 -10.5t-7 -7.5l-6 -6zM788 43q20 -20 24 -23l-24 -23h-81q-6 5 -10.5 9.5
l-7.5 7.5l-6 6l24 23h81z" />
    <glyph glyph-name="guilsinglleft" unicode="&#x2039;" horiz-adv-x="324" 
d="M213 416l-47 -46l-37 -1l-46 46l46 47h18t19 1l2 -2zM83 224l47 47h36l46 -46l-46 -47h-37zM118 358v-77l-46 -46l-47 47v75l46 47zM181 42v129l47 47l46 -46v-130h-93zM222 427l-24.5 24.5t-21.5 22.5v129l47 47l12.5 -13t30.5 -30l3 -3v-66v-64z" />
    <glyph glyph-name="guilsinglright" unicode="&#x203a;" horiz-adv-x="321" 
d="M131 461l1 2q10 -1 19.5 -1h17.5l47 -47l-35 -35q-7 -7 -12 -11l-36 1l-47 46zM169 178h-36l-47 47l47 46h36q11 -12 20 -20.5l15 -14.5q7 -7 11 -12zM227 404q13 -12 24.5 -24l22.5 -23v-75l-47 -47l-46 46v77zM25 42v130l3 3q19 20 30 30.5l13 12.5l47 -47v-129h-93z
M30 474v64v66l46 46l47 -47v-129l-47 -47z" />
    <glyph glyph-name="fraction" unicode="&#x2044;" horiz-adv-x="260" 
d="M131 445v142l44 44l2 2l47 -47v-141q-2 -3 -14 -15l-32 -32zM81 235v147l47 45l47 -48v-144l-47 -47zM26 31v142l47 46l47 -47v-141q-5 -4 -16.5 -15.5l-30.5 -30.5z" />
    <glyph glyph-name="Euro" unicode="&#x20ac;" horiz-adv-x="454" 
d="M111 575l47 47h208l46 -46l-47 -47h-207zM99 323l-46 46v148l47 47l46 -46v-148zM53 103v150l46 47l47 -47v-149l-47 -47zM412 45l-47 -47h-207l-48 47l47 46h208zM111 311l47 47h108l46 -46l-47 -47h-107zM-41 311l47 47h34l46 -46l-47 -47h-33z" />
    <glyph glyph-name="trademark" unicode="&#x2122;" horiz-adv-x="352" 
d="M89 621l11 11h23l11 -11l-11 -12h-23v1zM86 558l-12 11v37l12 12l11 -11v-38zM74 487v53l12 12l11 -12v-53q-3 -3 -4.5 -5t-3.5 -4l-3 -3zM37 621l12 12h23l11 -12l-12 -12h-22v1zM157 622l12 11h41l11 -11l-11 -12h-41l-1 1zM235 607v-37l-11 -11l-12 11v37l12 12z
M235 542l1 -54l-12 -12l-12 12v53q1 0 1 1l11 11zM166 570q-9 -9 -12 -11l-11 11v37l11 12q3 -3 5 -4.5t4 -3.5l3 -3v-38zM154 476q-3 3 -4.5 5t-3.5 4l-3 3v53l11 12l12 -12v-53q-12 -11 -12 -12zM227 622l12 11h41l11 -11l-11 -12h-41v1zM306 607v-37l-12 -11l-12 11v37
l12 12zM294 553q3 -3 5 -4.5t4 -3.5l3 -3v-54l-12 -12l-12 12v53q1 0 1 1z" />
    <glyph glyph-name="partialdiff" unicode="&#x2202;" horiz-adv-x="391" 
d="M40 482h303v-303h-303v303z" />
    <glyph glyph-name="product" unicode="&#x220f;" horiz-adv-x="391" 
d="M40 482h303v-303h-303v303z" />
    <glyph glyph-name="summation" unicode="&#x2211;" horiz-adv-x="391" 
d="M40 482h303v-303h-303v303z" />
    <glyph glyph-name="minus" unicode="&#x2212;" horiz-adv-x="417" 
d="M372 256l-49 -48h-239l-48 49l48 48h239z" />
    <glyph glyph-name="radical" unicode="&#x221a;" horiz-adv-x="391" 
d="M40 482h303v-303h-303v303z" />
    <glyph glyph-name="infinity" unicode="&#x221e;" horiz-adv-x="391" 
d="M40 482h303v-303h-303v303z" />
    <glyph glyph-name="integral" unicode="&#x222b;" horiz-adv-x="391" 
d="M40 482h303v-303h-303v303z" />
    <glyph glyph-name="approxequal" unicode="&#x2248;" horiz-adv-x="391" 
d="M40 482h303v-303h-303v303z" />
    <glyph glyph-name="notequal" unicode="&#x2260;" horiz-adv-x="391" 
d="M40 482h303v-303h-303v303z" />
    <glyph glyph-name="lessequal" unicode="&#x2264;" horiz-adv-x="567" 
d="M530 507l-46 -47h-158l-47 47l46 46h159zM314 451l-47 -47h-103l-11 12l-15 14.5t-20 20.5l46 46h105zM321 248h159l1 -2q1 0 42 -42l3 -2l-47 -47h-158l-46 47l23 22.5t23 23.5zM118 259l47 47h102l47 -47l-46 -46h-103q-1 0 -47 46zM153 393v-76l-46 -46l-47 47v75
l46 47zM463 53l-49 -48h-239l-48 49l48 48h239z" />
    <glyph glyph-name="greaterequal" unicode="&#x2265;" horiz-adv-x="590" 
d="M99 550h159l46 -46l-47 -47h-158l-46 47zM314 494h105l46 -46l-46 -47h-103l-47 47zM308 199l-46 -47h-158l-47 47l3 2l43 44h159zM419 210h-103l-47 46l47 47h102l47 -47zM477 437l46 -47v-75l-47 -47l-46 46v76zM456 49l-49 -48h-239l-48 49l48 48h239z" />
    <glyph glyph-name="lozenge" unicode="&#x25ca;" horiz-adv-x="391" 
d="M40 482h303v-303h-303v303z" />
    <glyph glyph-name="fi" unicode="&#xfb01;" horiz-adv-x="563" 
d="M93 581l48 48h136l48 -48l-48 -48h-136zM84 189l48 -48v-96l-49 -48l-48 49v95zM84 412l-48 48v63l48 49l48 -48v-63zM83 206l-47 48v92l48 48l48 -48v-92zM286 403l-48 -48h-97l-49 49l48 47h98zM457 225l48 -48v-131l-48 -47l-49 48v129zM456 232l-48 48v113l49 48
l48 -48v-112zM528 580l-47 -47h-65q-4 5 -11 12l-15 14.5t-20 20.5l46 46l67 -1z" />
    <glyph glyph-name="fl" unicode="&#xfb02;" horiz-adv-x="501" 
d="M93 581l48 48h136l48 -48l-48 -48h-136zM84 189l48 -48v-96l-49 -48l-48 49v95zM84 412l-48 48v63l48 49l48 -48v-63zM83 206l-47 48v92l48 48l48 -48v-92zM286 403l-48 -48h-97l-49 49l48 47h98zM418 331l47 -48v-233l-47 -48l-48 48v233zM418 338l-48 48v189l48 48
l48 -48v-188z" />
    <glyph glyph-name="apple" horiz-adv-x="391" 
d="M40 482h303v-303h-303v303z" />
    </font>
</defs>
</svg>
