<svg xmlns="http://www.w3.org/2000/svg" xmlns:xlink="http://www.w3.org/1999/xlink" viewBox="0 0 2000 644"><defs><style>.cls-1{fill:none;}.cls-2{isolation:isolate;}.cls-3{opacity:0.3;}.cls-4{clip-path:url(#clip-path);}.cls-5{mix-blend-mode:screen;}.cls-6{fill:#72b9d9;}.cls-7{fill:#0b5a76;}.cls-8{fill:#91d1dd;}.cls-9{fill:#147783;}.cls-10{fill:#9dbac4;}</style><clipPath id="clip-path"><rect class="cls-1" y="0.02" width="2000" height="643.98"/></clipPath></defs><title>スケジュール背景</title><g class="cls-2"><g id="レイヤー_1" data-name="レイヤー 1"><g class="cls-3"><g class="cls-4"><g class="cls-5"><rect class="cls-6" x="43.37" y="284.3" width="30" height="30"/></g><g class="cls-5"><rect class="cls-7" x="210.37" y="177.3" width="60" height="60"/></g><g class="cls-5"><rect class="cls-6" x="73.37" y="217.3" width="60" height="60"/></g><g class="cls-5"><rect class="cls-8" x="181.37" y="262.3" width="30" height="30"/></g><g class="cls-5"><rect class="cls-6" x="288.37" y="177.3" width="30" height="30"/></g><g class="cls-5"><rect class="cls-6" x="193.37" y="83.3" width="30" height="30"/></g><g class="cls-5"><rect class="cls-6" x="349.37" y="122.3" width="30" height="30"/></g><g class="cls-5"><rect class="cls-9" x="263.37" y="117.3" width="30" height="30"/></g><g class="cls-5"><rect class="cls-8" x="298.37" y="17.3" width="45" height="45"/></g><g class="cls-5"><rect class="cls-8" x="421.37" y="10.3" width="30" height="30"/></g><g class="cls-5"><rect class="cls-6" x="207.37" y="398.3" width="46" height="46"/></g><g class="cls-5"><rect class="cls-7" x="135.37" y="339.3" width="46" height="46"/></g><g class="cls-5"><rect class="cls-8" x="96.37" y="305.3" width="57" height="57"/></g><g class="cls-5"><rect class="cls-7" x="175.43" y="-32.17" width="95.25" height="95.25"/></g><g class="cls-5"><rect class="cls-7" x="381.03" y="50.01" width="66.94" height="66.94"/></g><g class="cls-5"><rect class="cls-8" x="86.33" y="98.17" width="97.96" height="97.96"/></g><g class="cls-5"><rect class="cls-9" x="-16.63" y="-16.7" width="150" height="150"/></g><g class="cls-5"><rect class="cls-8" x="-74.63" y="-137.7" width="150" height="150"/></g><g class="cls-5"><rect class="cls-6" x="1881.63" y="284.3" width="30" height="30"/></g><g class="cls-5"><rect class="cls-7" x="1684.63" y="177.3" width="60" height="60"/></g><g class="cls-5"><rect class="cls-6" x="1821.63" y="217.3" width="60" height="60"/></g><g class="cls-5"><rect class="cls-8" x="1743.63" y="262.3" width="30" height="30"/></g><g class="cls-5"><rect class="cls-6" x="1636.63" y="177.3" width="30" height="30"/></g><g class="cls-5"><rect class="cls-6" x="1731.63" y="83.3" width="30" height="30"/></g><g class="cls-5"><rect class="cls-6" x="1575.63" y="122.3" width="30" height="30"/></g><g class="cls-5"><rect class="cls-9" x="1661.63" y="117.3" width="30" height="30"/></g><g class="cls-5"><rect class="cls-8" x="1611.63" y="17.3" width="45" height="45"/></g><g class="cls-5"><rect class="cls-8" x="1503.63" y="10.3" width="30" height="30"/></g><g class="cls-5"><rect class="cls-6" x="1701.63" y="398.3" width="46" height="46"/></g><g class="cls-5"><rect class="cls-7" x="1773.63" y="339.3" width="46" height="46"/></g><g class="cls-5"><rect class="cls-8" x="1801.63" y="305.3" width="57" height="57"/></g><g class="cls-5"><rect class="cls-7" x="1684.32" y="-32.17" width="95.25" height="95.25"/></g><g class="cls-5"><rect class="cls-7" x="1507.04" y="50.01" width="66.94" height="66.94"/></g><g class="cls-5"><rect class="cls-8" x="1770.7" y="98.17" width="97.96" height="97.96"/></g><g class="cls-5"><rect class="cls-9" x="1821.63" y="-16.7" width="150" height="150"/></g><g class="cls-5"><rect class="cls-8" x="1879.63" y="-137.7" width="150" height="150"/></g><g class="cls-5"><rect class="cls-10" x="511.19" y="609.61" width="84.79" height="84.79"/></g><g class="cls-5"><rect class="cls-6" x="447.3" y="544.08" width="112.42" height="112.42"/></g><g class="cls-5"><rect class="cls-6" x="375.33" y="176.08" width="30" height="30"/></g><g class="cls-5"><rect class="cls-7" x="542.33" y="253.08" width="60" height="60"/></g><g class="cls-5"><rect class="cls-6" x="405.33" y="213.08" width="60" height="60"/></g><g class="cls-5"><rect class="cls-8" x="513.33" y="198.08" width="30" height="30"/></g><g class="cls-5"><rect class="cls-6" x="620.33" y="283.08" width="30" height="30"/></g><g class="cls-5"><rect class="cls-6" x="833.33" y="585.08" width="30" height="30"/></g><g class="cls-5"><rect class="cls-6" x="525.33" y="377.08" width="30" height="30"/></g><g class="cls-5"><rect class="cls-9" x="768.33" y="609.08" width="30" height="30"/></g><g class="cls-5"><rect class="cls-6" x="681.33" y="338.08" width="30" height="30"/></g><g class="cls-5"><rect class="cls-9" x="783.33" y="523.08" width="30" height="30"/></g><g class="cls-5"><rect class="cls-7" x="663.33" y="555.08" width="66" height="66"/></g><g class="cls-5"><rect class="cls-6" x="630.33" y="509.08" width="66" height="66"/></g><g class="cls-5"><rect class="cls-9" x="595.33" y="343.08" width="30" height="30"/></g><g class="cls-5"><rect class="cls-8" x="630.33" y="428.08" width="45" height="45"/></g><g class="cls-5"><rect class="cls-8" x="753.33" y="450.08" width="30" height="30"/></g><g class="cls-5"><rect class="cls-6" x="539.33" y="46.08" width="46" height="46"/></g><g class="cls-5"><rect class="cls-7" x="467.33" y="105.08" width="46" height="46"/></g><g class="cls-5"><rect class="cls-8" x="428.33" y="128.08" width="57" height="57"/></g><g class="cls-5"><rect class="cls-7" x="507.39" y="427.29" width="95.25" height="95.25"/></g><g class="cls-5"><rect class="cls-7" x="712.99" y="373.42" width="66.94" height="66.94"/></g><g class="cls-5"><rect class="cls-9" x="623.03" y="600.08" width="48.28" height="48.28"/></g><g class="cls-5"><rect class="cls-8" x="418.29" y="294.24" width="97.96" height="97.96"/></g><g class="cls-5"><rect class="cls-9" x="315.33" y="357.08" width="150" height="150"/></g><g class="cls-5"><rect class="cls-8" x="257.33" y="478.08" width="150" height="150"/></g><g class="cls-5"><rect class="cls-6" x="1968.59" y="283.08" width="30" height="30"/></g><g class="cls-5"><rect class="cls-6" x="1755.59" y="585.08" width="30" height="30"/></g><g class="cls-5"><rect class="cls-9" x="1820.59" y="609.08" width="30" height="30"/></g><g class="cls-5"><rect class="cls-6" x="1907.59" y="338.08" width="30" height="30"/></g><g class="cls-5"><rect class="cls-9" x="1805.59" y="523.08" width="30" height="30"/></g><g class="cls-5"><rect class="cls-7" x="1889.59" y="555.08" width="66" height="66"/></g><g class="cls-5"><rect class="cls-6" x="1922.59" y="509.08" width="66" height="66"/></g><g class="cls-5"><rect class="cls-9" x="1993.59" y="343.08" width="30" height="30"/></g><g class="cls-5"><rect class="cls-8" x="1943.59" y="428.08" width="45" height="45"/></g><g class="cls-5"><rect class="cls-8" x="1835.59" y="450.08" width="30" height="30"/></g><g class="cls-5"><rect class="cls-7" x="1839" y="373.42" width="66.94" height="66.94"/></g><g class="cls-5"><rect class="cls-9" x="1947.61" y="600.08" width="48.28" height="48.28"/></g><g class="cls-5"><rect class="cls-6" x="1434.22" y="354.2" width="30" height="30"/></g><g class="cls-5"><rect class="cls-7" x="1601.22" y="431.2" width="60" height="60"/></g><g class="cls-5"><rect class="cls-6" x="1464.22" y="391.2" width="60" height="60"/></g><g class="cls-5"><rect class="cls-8" x="1572.22" y="376.2" width="30" height="30"/></g><g class="cls-5"><rect class="cls-6" x="1679.22" y="461.2" width="30" height="30"/></g><g class="cls-5"><rect class="cls-6" x="1584.22" y="555.2" width="30" height="30"/></g><g class="cls-5"><rect class="cls-6" x="1740.22" y="516.2" width="30" height="30"/></g><g class="cls-5"><rect class="cls-9" x="1654.22" y="521.2" width="30" height="30"/></g><g class="cls-5"><rect class="cls-8" x="1689.22" y="606.2" width="45" height="45"/></g><g class="cls-5"><rect class="cls-8" x="1812.22" y="628.2" width="30" height="30"/></g><g class="cls-5"><rect class="cls-6" x="1598.22" y="224.2" width="46" height="46"/></g><g class="cls-5"><rect class="cls-7" x="1526.22" y="283.2" width="46" height="46"/></g><g class="cls-5"><rect class="cls-8" x="1487.22" y="306.2" width="57" height="57"/></g><g class="cls-5"><rect class="cls-7" x="1566.29" y="605.41" width="95.25" height="95.25"/></g><g class="cls-5"><rect class="cls-7" x="1771.88" y="551.54" width="66.94" height="66.94"/></g><g class="cls-5"><rect class="cls-8" x="1477.19" y="472.36" width="97.96" height="97.96"/></g><g class="cls-5"><rect class="cls-9" x="1374.22" y="535.2" width="150" height="150"/></g></g></g></g></g></svg>